<?xml version="1.0" standalone="yes"?>
<svg xmlns="http://www.w3.org/2000/svg" width="418" height="125">
<path style="fill:#010101; stroke:none;" d="M0 0L0 125L232 125L232 124L219 123L219 119L223 118L222 113C216.708 113.004 213.456 112.837 211 118L216 119L216 123L203 123C205.09 114.872 209.864 104.611 213.789 97.0579C215.055 94.6218 217.706 92.0363 220.722 93.3326C225.914 95.5636 228.307 112.798 230 118C232.346 117.719 236.51 118.835 238.397 117.269C244.372 112.306 238.683 97.9138 236 93C246.674 93 265.196 90.6915 257 107C274.37 121.895 241.167 122.239 234 124L234 125L418 125L418 23C413.132 25.4275 402.488 26.7149 399.317 30.1628C394.988 34.8699 396.945 42.7016 393.157 47.8519C391.353 50.3035 387.06 52.0601 385.118 48.6813C380.533 40.7028 392.107 25.6824 389 16L400 15L400 20C406.555 16.5664 410.697 15.604 418 17L418 0L0 0z"/>
<path style="fill:#f3f7ee; stroke:none;" d="M188 3L189 4L188 3z"/>
<path style="fill:#d3e7bc; stroke:none;" d="M189 3L189 4L192 4L189 3z"/>
<path style="fill:#a8d371; stroke:none;" d="M192 3L192 4L196 4L192 3z"/>
<path style="fill:#d3e7bc; stroke:none;" d="M196 3L196 4L200 4L196 3z"/>
<path style="fill:#f3f7ee; stroke:none;" d="M200 3L201 4L200 3M203 3L203 4L207 6L207 5L203 3M230 3L231 4L230 3M296 3L297 4L296 3z"/>
<path style="fill:#d3e7bc; stroke:none;" d="M185.667 4.33334L186.333 4.66666L185.667 4.33334z"/>
<path style="fill:#a8d371; stroke:none;" d="M187 4L188 5L187 4z"/>
<path style="fill:#76b141; stroke:none;" d="M188 4.53241C185.554 5.1153 183.15 6.21353 181.189 7.80016C169.723 17.0772 181.271 27.2614 190 31.7569C192.845 33.2222 198.461 35.7393 196.824 39.8951C191.945 52.2839 177.744 35.5823 172.434 39.1983C168.148 42.1178 173.231 46.8182 176.015 48.3264C181.869 51.4975 189.653 51.8115 196 50.0718C198.437 49.4036 200.843 48.3913 202.892 46.8912C223.252 31.9844 182.363 25.4564 186.427 15.0147C188.18 10.509 193.487 8.30833 197.992 9.57639C205.108 11.5797 199.99 19.4507 204.469 21.338C210.059 23.6935 211.617 14.4458 210.257 11.0432C207.195 3.3844 194.773 2.91816 188 4.53241z"/>
<path style="fill:#a8d371; stroke:none;" d="M201.667 4.33334L202.333 4.66666L201.667 4.33334z"/>
<path style="fill:#d3e7bc; stroke:none;" d="M203 4L204 5L203 4z"/>
<path style="fill:#f3f7ee; stroke:none;" d="M227 4L226 6L227 4z"/>
<path style="fill:#d3e7bc; stroke:none;" d="M228 4L229 5L228 4z"/>
<path style="fill:#a8d371; stroke:none;" d="M229 4L229 5L233 6L233 5L229 4z"/>
<path style="fill:#f3f7ee; stroke:none;" d="M232 4L233 5L232 4M293 4L292 6L293 4z"/>
<path style="fill:#d3e7bc; stroke:none;" d="M294 4L295 5L294 4z"/>
<path style="fill:#a8d371; stroke:none;" d="M295 4L295 5L298 5L295 4z"/>
<path style="fill:#d3e7bc; stroke:none;" d="M298 4L300 6L298 4M183 5L184 6L183 5z"/>
<path style="fill:#a8d371; stroke:none;" d="M184 5L185 6L184 5M204 5L205 6L204 5z"/>
<path style="fill:#d3e7bc; stroke:none;" d="M205 5L206 6L205 5z"/>
<path style="fill:#a8d371; stroke:none;" d="M227 5L226 7L227 5z"/>
<path style="fill:#76b141; stroke:none;" d="M217 25L222 24C220.03 29.8077 215.461 41.1848 218.953 46.8912C225.326 57.3043 240.383 47.1732 241 38C236.221 38.7529 232.756 45.2089 228.147 44.6852C222.225 44.0122 227.265 29.0502 229.14 26.1481C231.777 22.0647 236.206 24.1838 239.663 21.8256C246.232 17.3438 233.016 17.6259 231 18C231.339 15.4796 233.705 -0.697166 226.727 7.32253C224.415 9.9796 225.002 13.9136 223.012 16.6829C220.168 20.6394 215.591 18.8103 217 25z"/>
<path style="fill:#f3f7ee; stroke:none;" d="M233 5L234 6L233 5z"/>
<path style="fill:#a8d371; stroke:none;" d="M293 5L292 7L293 5z"/>
<path style="fill:#76b141; stroke:none;" d="M283 25L288 24C286.207 30.3651 281.186 41.7415 285.742 47.7716C292.784 57.0907 306.414 46.7285 307 38C302.295 38.7586 299.501 44.5911 295.059 44.6543C288.316 44.7503 293.501 29.1232 295.303 26.1481C296.197 24.6722 316.656 15.8693 301.044 17.2909C299.698 17.4134 298.324 17.7543 297 18L299 5C290.723 5.63099 293.004 11.438 289.063 16.6829C286.164 20.5418 281.846 18.9365 283 25z"/>
<path style="fill:#f3f7ee; stroke:none;" d="M181 6L180 8L181 6z"/>
<path style="fill:#a8d371; stroke:none;" d="M182 6L183 7L182 6M206 6L207 7L206 6z"/>
<path style="fill:#d3e7bc; stroke:none;" d="M207 6L208 7L207 6M233 6L233 9L234 9L233 6z"/>
<path style="fill:#a8d371; stroke:none;" d="M299.333 6.66666L299.667 7.33334L299.333 6.66666M181 7L182 8L181 7M208 7L209 8L208 7z"/>
<path style="fill:#d3e7bc; stroke:none;" d="M225 7L226 8L225 7M291 7L292 8L291 7M179 8L180 9L179 8z"/>
<path style="fill:#a8d371; stroke:none;" d="M209 8L210 9L209 8M225 8L226 9L225 8M291.333 8.66666L291.667 9.33334L291.333 8.66666z"/>
<path style="fill:#d3e7bc; stroke:none;" d="M299 8L300 9L299 8M178 9L179 10L178 9z"/>
<path style="fill:#a8d371; stroke:none;" d="M191 9L191 10L194 10L191 9z"/>
<path style="fill:#d3e7bc; stroke:none;" d="M194 9L194 10L197 10L194 9z"/>
<path style="fill:#a8d371; stroke:none;" d="M197.667 9.33334L198.333 9.66666L197.667 9.33334z"/>
<path style="fill:#d3e7bc; stroke:none;" d="M210 9L211 10L210 9z"/>
<path style="fill:#f3f7ee; stroke:none;" d="M299 9L300 10L299 9M177 10L178 11L177 10z"/>
<path style="fill:#a8d371; stroke:none;" d="M178 10L179 11L178 10M189 10L190 11L189 10z"/>
<path style="fill:#d3e7bc; stroke:none;" d="M190 10L191 11L190 10z"/>
<path style="fill:#f3f7ee; stroke:none;" d="M199 10L200 11L199 10z"/>
<path style="fill:#d3e7bc; stroke:none;" d="M200 10L201 11L200 10z"/>
<path style="fill:#a8d371; stroke:none;" d="M201 10L202 11L201 10M210 10L211 11L210 10z"/>
<path style="fill:#f3f7ee; stroke:none;" d="M211 10L212 11L211 10z"/>
<path style="fill:#d3e7bc; stroke:none;" d="M224.333 10.6667L224.667 11.3333L224.333 10.6667z"/>
<path style="fill:#a8d371; stroke:none;" d="M232 10L233 11L232 10z"/>
<path style="fill:#f3f7ee; stroke:none;" d="M290 10L291 11L290 10z"/>
<path style="fill:#a8d371; stroke:none;" d="M298.333 10.6667L298.667 11.3333L298.333 10.6667M177 11L178 12L177 11z"/>
<path style="fill:#d3e7bc; stroke:none;" d="M188 11L189 12L188 11M202 11L203 12L202 11M211 11L212 12L211 11M232.333 11.6667L232.667 12.3333L232.333 11.6667M290 11L291 12L290 11z"/>
<path style="fill:#f3f7ee; stroke:none;" d="M176 12L177 13L176 12z"/>
<path style="fill:#d3e7bc; stroke:none;" d="M187 12L188 13L187 12z"/>
<path style="fill:#a8d371; stroke:none;" d="M203.333 12.6667L203.667 13.3333L203.333 12.6667M211 12L211 16L212 16L211 12M224 12L225 13L224 12M290.333 12.6667L290.667 13.3333L290.333 12.6667z"/>
<path style="fill:#d3e7bc; stroke:none;" d="M298 12L299 13L298 12M176 13L177 14L176 13z"/>
<path style="fill:#a8d371; stroke:none;" d="M186 13L187 14L186 13z"/>
<path style="fill:#f3f7ee; stroke:none;" d="M232 13L233 14L232 13M298.333 13.6667L298.667 14.3333L298.333 13.6667z"/>
<path style="fill:#a8d371; stroke:none;" d="M176.333 14.6667L176.667 15.3333L176.333 14.6667z"/>
<path style="fill:#d3e7bc; stroke:none;" d="M186 14L187 15L186 14z"/>
<path style="fill:#f3f7ee; stroke:none;" d="M202 14L203 15L202 14M223 14L224 15L223 14z"/>
<path style="fill:#a8d371; stroke:none;" d="M231 14L232 15L231 14z"/>
<path style="fill:#f3f7ee; stroke:none;" d="M289 14L290 15L289 14z"/>
<path style="fill:#a8d371; stroke:none;" d="M297.333 14.6667L297.667 15.3333L297.333 14.6667z"/>
<path style="fill:#f3f7ee; stroke:none;" d="M391 15L391 16L395 15L391 15M186 15L187 16L186 15z"/>
<path style="fill:#d3e7bc; stroke:none;" d="M202.333 15.6667L202.667 16.3333L202.333 15.6667M223 15L224 16L223 15M231.333 15.6667L231.667 16.3333L231.333 15.6667z"/>
<path style="fill:#f3f7ee; stroke:none;" d="M234 16L234 17L238 16L234 16M239 15L240 16L239 15M265 15L266 16L265 15z"/>
<path style="fill:#d3e7bc; stroke:none;" d="M289.333 15.6667L289.667 16.3333L289.333 15.6667z"/>
<path style="fill:#f3f7ee; stroke:none;" d="M357 15L357 16L360 16L357 15M378.667 15.3333L379.333 15.6667L378.667 15.3333z"/>
<path style="fill:#d3e7bc; stroke:none;" d="M393 15L393 16L396 16L393 15z"/>
<path style="fill:#f3f7ee; stroke:none;" d="M396 15L396 16L399 19L400 19L400 15L396 15M409.667 15.3333L410.333 15.6667L409.667 15.3333z"/>
<path style="fill:#a8d371; stroke:none;" d="M185 16L185 19L186 19L185 16z"/>
<path style="fill:#d3e7bc; stroke:none;" d="M211 16L212 17L211 16z"/>
<path style="fill:#a8d371; stroke:none;" d="M223 16L221 18L221 19L223 16z"/>
<path style="fill:#d3e7bc; stroke:none;" d="M236 16L236 17L241 17L236 16z"/>
<path style="fill:#f3f7ee; stroke:none;" d="M241 16L243 18L241 16M260 16L261 17L260 16z"/>
<path style="fill:#d3e7bc; stroke:none;" d="M261.667 16.3333L262.333 16.6667L261.667 16.3333z"/>
<path style="fill:#a8d371; stroke:none;" d="M263.667 16.3333L264.333 16.6667L263.667 16.3333z"/>
<path style="fill:#76b141; stroke:none;" d="M266 44C266.347 48.4558 270.274 52.0167 272.025 45.9414C273.622 40.4029 278.208 29.9251 276.397 24.2894C271.922 10.3679 253.471 18.3382 248.533 27.0008C240.21 41.6041 251.849 54.5742 266 44z"/>
<path style="fill:#a8d371; stroke:none;" d="M266.667 16.3333L267.333 16.6667L266.667 16.3333z"/>
<path style="fill:#d3e7bc; stroke:none;" d="M268 16L269 17L268 16z"/>
<path style="fill:#f3f7ee; stroke:none;" d="M269 16L270 17L269 16z"/>
<path style="fill:#d3e7bc; stroke:none;" d="M297 16L298 17L297 16z"/>
<path style="fill:#f3f7ee; stroke:none;" d="M298 16L298 17L304 17L298 16z"/>
<path style="fill:#d3e7bc; stroke:none;" d="M304 16L304 17L307 17L304 16z"/>
<path style="fill:#f3f7ee; stroke:none;" d="M307 16L309 18L307 16M330.667 16.3333L331.333 16.6667L330.667 16.3333z"/>
<path style="fill:#d3e7bc; stroke:none;" d="M332 16L332 17L337 17L332 16z"/>
<path style="fill:#f3f7ee; stroke:none;" d="M337.667 16.3333L338.333 16.6667L337.667 16.3333z"/>
<path style="fill:#d3e7bc; stroke:none;" d="M356 16L357 17L356 16z"/>
<path style="fill:#a8d371; stroke:none;" d="M357 16L358 17L357 16z"/>
<path style="fill:#76b141; stroke:none;" d="M367 46C367.626 49.7494 371.699 53.195 374.57 48.6821C378.291 42.8328 378.981 32.7171 380.626 26C381.162 23.8087 382.723 19.8295 380.958 17.8364C378.863 15.4691 375.658 18.2096 374.569 20.1343C371.071 26.3161 372.521 35.3284 367.57 40.7253C356.376 52.9279 355.113 36.0726 358.792 28C360.484 24.2875 362.604 20.8353 364 17C347.335 13.4329 340.259 56.7961 360.995 49.4823C363.241 48.6903 365.079 47.3557 367 46z"/>
<path style="fill:#a8d371; stroke:none;" d="M362 16L363 17L362 16z"/>
<path style="fill:#d3e7bc; stroke:none;" d="M363 16L364 17L363 16M376 16L377 17L376 16z"/>
<path style="fill:#a8d371; stroke:none;" d="M377.667 16.3333L378.333 16.6667L377.667 16.3333M380 16L380 17L382 19L383 19L380 16z"/>
<path style="fill:#f3f7ee; stroke:none;" d="M382 16L383 17L382 16M389 16L390 17L389 16z"/>
<path style="fill:#a8d371; stroke:none;" d="M390 16L391 17L390 16z"/>
<path style="fill:#76b141; stroke:none;" d="M390 17L385 50C398.408 49.8402 393.103 27.4248 408 23L407 26C416.144 24.978 416.164 14.3514 407 17.2384C403.774 18.2549 401.387 20.7425 399 23C398.556 17.1809 395.532 15.4288 390 17z"/>
<path style="fill:#a8d371; stroke:none;" d="M397 16L398 17L397 16z"/>
<path style="fill:#d3e7bc; stroke:none;" d="M406 16L407 17L406 16z"/>
<path style="fill:#a8d371; stroke:none;" d="M407.667 16.3333L408.333 16.6667L407.667 16.3333M410 16L410 17L413 17L410 16z"/>
<path style="fill:#d3e7bc; stroke:none;" d="M413 16L414 17L413 16z"/>
<path style="fill:#f3f7ee; stroke:none;" d="M414 16L413 26C417.711 23.6288 419.848 18.3501 414 16z"/>
<path style="fill:#a8d371; stroke:none;" d="M202.333 17.6667L202.667 18.3333L202.333 17.6667z"/>
<path style="fill:#f3f7ee; stroke:none;" d="M211 17L212 18L211 17M219 17L220 18L219 17M222 17L223 18L222 17z"/>
<path style="fill:#a8d371; stroke:none;" d="M231 17L231 18L234 18L231 17M241 17L242 18L241 17z"/>
<path style="fill:#f3f7ee; stroke:none;" d="M257 17L258 18L257 17z"/>
<path style="fill:#d3e7bc; stroke:none;" d="M258 17L259 18L258 17z"/>
<path style="fill:#a8d371; stroke:none;" d="M259 17L260 18L259 17M270 17L272 19L270 17z"/>
<path style="fill:#f3f7ee; stroke:none;" d="M271 17L272 18L271 17M288 17L289 18L288 17z"/>
<path style="fill:#a8d371; stroke:none;" d="M289 17L290 18L289 17M297 17L297 18L300 18L297 17M307 17L308 18L307 17z"/>
<path style="fill:#f3f7ee; stroke:none;" d="M326 17L327 18L326 17z"/>
<path style="fill:#d3e7bc; stroke:none;" d="M327 17L328 18L327 17z"/>
<path style="fill:#a8d371; stroke:none;" d="M328 17L329 18L328 17z"/>
<path style="fill:#76b141; stroke:none;" d="M331 45C329.827 49.9353 325.849 60.728 319.015 59.2485C315.936 58.5819 311.101 50.6402 307.736 54.6227C305.546 57.2144 309.157 60.7386 311.094 62.1458C316.113 65.7927 322.708 65.4975 327.996 62.5826C339.513 56.2336 353.074 11.9752 329 17.5293C320.409 19.5113 312.907 27.0637 312.105 36C311.02 48.0883 322.366 51.8916 331 45z"/>
<path style="fill:#a8d371; stroke:none;" d="M338 17L339 18L338 17z"/>
<path style="fill:#d3e7bc; stroke:none;" d="M339 17L340 18L339 17z"/>
<path style="fill:#f3f7ee; stroke:none;" d="M340 17L342 19L340 17z"/>
<path style="fill:#a8d371; stroke:none;" d="M355 17L356 18L355 17z"/>
<path style="fill:#f3f7ee; stroke:none;" d="M364 17L365 18L364 17z"/>
<path style="fill:#d3e7bc; stroke:none;" d="M375 17L376 18L375 17M389 17L390 18L389 17z"/>
<path style="fill:#a8d371; stroke:none;" d="M398 17L399 18L398 17z"/>
<path style="fill:#d3e7bc; stroke:none;" d="M404 17L405 18L404 17z"/>
<path style="fill:#a8d371; stroke:none;" d="M405 17L406 18L405 17M414 17L415 18L414 17M176.333 18.6667L176.667 19.3333L176.333 18.6667M210 18L211 19L210 18z"/>
<path style="fill:#f3f7ee; stroke:none;" d="M215 18C212.791 24.1721 217.423 25.5766 219 31L220 31L221 25C216.939 24.3467 215.05 22.4946 218 19L215 18z"/>
<path style="fill:#d3e7bc; stroke:none;" d="M218 18L218 19L221 19L218 18M242 18L242 21L243 21L242 18z"/>
<path style="fill:#f3f7ee; stroke:none;" d="M255 18L256 19L255 18z"/>
<path style="fill:#d3e7bc; stroke:none;" d="M256 18L257 19L256 18z"/>
<path style="fill:#a8d371; stroke:none;" d="M257 18L258 19L257 18z"/>
<path style="fill:#d3e7bc; stroke:none;" d="M272 18L273 19L272 18z"/>
<path style="fill:#f3f7ee; stroke:none;" d="M283.667 18.3333L284.333 18.6667L283.667 18.3333z"/>
<path style="fill:#d3e7bc; stroke:none;" d="M285.667 18.3333L286.333 18.6667L285.667 18.3333z"/>
<path style="fill:#a8d371; stroke:none;" d="M287.667 18.3333L288.333 18.6667L287.667 18.3333z"/>
<path style="fill:#d3e7bc; stroke:none;" d="M308 18L309 19L308 18M324 18L325 19L324 18z"/>
<path style="fill:#a8d371; stroke:none;" d="M325 18L326 19L325 18M340 18L341 19L340 18z"/>
<path style="fill:#d3e7bc; stroke:none;" d="M354 18L355 19L354 18M364 18L365 19L364 18M374 18L375 19L374 18z"/>
<path style="fill:#a8d371; stroke:none;" d="M390 18L391 21L392 21L390 18z"/>
<path style="fill:#f3f7ee; stroke:none;" d="M402 18L400 21L402 18z"/>
<path style="fill:#a8d371; stroke:none;" d="M403 18L404 19L403 18M415 18L415 22L416 22L415 18z"/>
<path style="fill:#f3f7ee; stroke:none;" d="M186 19L188 21L186 19z"/>
<path style="fill:#d3e7bc; stroke:none;" d="M210 19L211 20L210 19z"/>
<path style="fill:#a8d371; stroke:none;" d="M216 19L217 20L216 19z"/>
<path style="fill:#f3f7ee; stroke:none;" d="M253 19L245 32L246 32L253 19z"/>
<path style="fill:#d3e7bc; stroke:none;" d="M254 19L255 20L254 19z"/>
<path style="fill:#a8d371; stroke:none;" d="M255 19L256 20L255 19z"/>
<path style="fill:#d3e7bc; stroke:none;" d="M273 19L274 20L273 19M282 19L283 20L282 19z"/>
<path style="fill:#a8d371; stroke:none;" d="M308 19L309 20L308 19z"/>
<path style="fill:#d3e7bc; stroke:none;" d="M322 19L323 20L322 19z"/>
<path style="fill:#a8d371; stroke:none;" d="M323 19L324 20L323 19M341 19L342 20L341 19M354 19L355 20L354 19z"/>
<path style="fill:#d3e7bc; stroke:none;" d="M363 19L364 20L363 19z"/>
<path style="fill:#a8d371; stroke:none;" d="M374 19L375 20L374 19z"/>
<path style="fill:#d3e7bc; stroke:none;" d="M382.333 19.6667L382.667 20.3333L382.333 19.6667z"/>
<path style="fill:#f3f7ee; stroke:none;" d="M390 19L391 20L390 19z"/>
<path style="fill:#d3e7bc; stroke:none;" d="M399 19L399 22L400 22L399 19z"/>
<path style="fill:#a8d371; stroke:none;" d="M402 19L403 20L402 19z"/>
<path style="fill:#d3e7bc; stroke:none;" d="M176.333 20.6667L176.667 21.3333L176.333 20.6667z"/>
<path style="fill:#a8d371; stroke:none;" d="M186 20L187 21L186 20M202 20L203 21L202 20z"/>
<path style="fill:#d3e7bc; stroke:none;" d="M209 20L210 21L209 20M253 20L254 21L253 20M274 20L275 21L274 20z"/>
<path style="fill:#f3f7ee; stroke:none;" d="M281 20L282 21L281 20z"/>
<path style="fill:#a8d371; stroke:none;" d="M282 20L283 21L282 20z"/>
<path style="fill:#d3e7bc; stroke:none;" d="M308 20L309 21L308 20z"/>
<path style="fill:#f3f7ee; stroke:none;" d="M320 20L319 22L320 20z"/>
<path style="fill:#d3e7bc; stroke:none;" d="M321 20L322 21L321 20M342 20L343 21L342 20M353 20L354 21L353 20z"/>
<path style="fill:#a8d371; stroke:none;" d="M362 20L363 21L362 20z"/>
<path style="fill:#f3f7ee; stroke:none;" d="M373 20L374 21L373 20z"/>
<path style="fill:#a8d371; stroke:none;" d="M401 20L402 21L401 20M187 21L188 22L187 21z"/>
<path style="fill:#d3e7bc; stroke:none;" d="M188 21L189 22L188 21M202 21L203 22L202 21z"/>
<path style="fill:#a8d371; stroke:none;" d="M208 21L209 22L208 21z"/>
<path style="fill:#d3e7bc; stroke:none;" d="M215 21L216 22L215 21z"/>
<path style="fill:#a8d371; stroke:none;" d="M241 21L242 22L241 21M252 21L253 22L252 21M274 21L276 23L274 21z"/>
<path style="fill:#f3f7ee; stroke:none;" d="M275 21L276 22L275 21z"/>
<path style="fill:#d3e7bc; stroke:none;" d="M281 21L281 24L282 24L281 21z"/>
<path style="fill:#a8d371; stroke:none;" d="M307 21L305 22L305 23L307 21z"/>
<path style="fill:#f3f7ee; stroke:none;" d="M308 21L309 22L308 21z"/>
<path style="fill:#a8d371; stroke:none;" d="M320 21L321 22L320 21M342 21L343 22L342 21M353 21L354 22L353 21z"/>
<path style="fill:#d3e7bc; stroke:none;" d="M362 21L363 22L362 21M373 21L374 22L373 21z"/>
<path style="fill:#f3f7ee; stroke:none;" d="M382 21L383 22L382 21M390 21L391 22L390 21z"/>
<path style="fill:#a8d371; stroke:none;" d="M400 21L401 22L400 21z"/>
<path style="fill:#f3f7ee; stroke:none;" d="M176 22L177 23L176 22z"/>
<path style="fill:#a8d371; stroke:none;" d="M177 22L178 23L177 22M189 22L190 23L189 22z"/>
<path style="fill:#d3e7bc; stroke:none;" d="M190 22L191 23L190 22M203 22L204 23L203 22z"/>
<path style="fill:#a8d371; stroke:none;" d="M204.667 22.3333L205.333 22.6667L204.667 22.3333z"/>
<path style="fill:#d3e7bc; stroke:none;" d="M206.667 22.3333L207.333 22.6667L206.667 22.3333z"/>
<path style="fill:#a8d371; stroke:none;" d="M215.333 22.6667L215.667 23.3333L215.333 22.6667M239 22L240 23L239 22z"/>
<path style="fill:#d3e7bc; stroke:none;" d="M240 22L241 23L240 22z"/>
<path style="fill:#f3f7ee; stroke:none;" d="M241 22L242 23L241 22z"/>
<path style="fill:#a8d371; stroke:none;" d="M251 22L252 23L251 22M263 22L264 23L263 22z"/>
<path style="fill:#d3e7bc; stroke:none;" d="M264.667 22.3333L265.333 22.6667L264.667 22.3333z"/>
<path style="fill:#a8d371; stroke:none;" d="M266 22L267 23L266 22z"/>
<path style="fill:#d3e7bc; stroke:none;" d="M276 22L277 23L276 22z"/>
<path style="fill:#f3f7ee; stroke:none;" d="M307 22L308 23L307 22z"/>
<path style="fill:#d3e7bc; stroke:none;" d="M318 22L319 23L318 22z"/>
<path style="fill:#a8d371; stroke:none;" d="M319 22L320 23L319 22M328 22L329 23L328 22z"/>
<path style="fill:#d3e7bc; stroke:none;" d="M329 22L329 23L332 23L329 22z"/>
<path style="fill:#f3f7ee; stroke:none;" d="M332 22L332 23L334 25L335 25L332 22z"/>
<path style="fill:#a8d371; stroke:none;" d="M334 22L335 23L334 22z"/>
<path style="fill:#d3e7bc; stroke:none;" d="M343 22L344 23L343 22z"/>
<path style="fill:#f3f7ee; stroke:none;" d="M352 22L353 23L352 22z"/>
<path style="fill:#a8d371; stroke:none;" d="M361 22L362 23L361 22M373 22L374 23L373 22M381 22L382 23L381 22z"/>
<path style="fill:#d3e7bc; stroke:none;" d="M390 22L391 23L390 22z"/>
<path style="fill:#a8d371; stroke:none;" d="M399 22L400 23L399 22z"/>
<path style="fill:#d3e7bc; stroke:none;" d="M177 23L178 24L177 23z"/>
<path style="fill:#a8d371; stroke:none;" d="M191 23L192 24L191 23z"/>
<path style="fill:#d3e7bc; stroke:none;" d="M192 23L193 24L192 23z"/>
<path style="fill:#a8d371; stroke:none;" d="M230 23L230 24L233 24L230 23z"/>
<path style="fill:#d3e7bc; stroke:none;" d="M233 23L233 24L238 24L233 23z"/>
<path style="fill:#f3f7ee; stroke:none;" d="M238 23L238 24L241 24L238 23z"/>
<path style="fill:#a8d371; stroke:none;" d="M250 23L251 24L250 23M260 23L261 24L260 23z"/>
<path style="fill:#d3e7bc; stroke:none;" d="M261 23L262 24L261 23z"/>
<path style="fill:#f3f7ee; stroke:none;" d="M262 23L263 24L262 23z"/>
<path style="fill:#010101; stroke:none;" d="M262.985 23.7114C255.132 25.5607 249.423 44.645 259.04 42.2886C266.067 40.5667 272.632 21.4401 262.985 23.7114z"/>
<path style="fill:#d3e7bc; stroke:none;" d="M267 23L268 24L267 23M277 23L278 24L277 23z"/>
<path style="fill:#a8d371; stroke:none;" d="M296 23L296 24L299 24L296 23z"/>
<path style="fill:#d3e7bc; stroke:none;" d="M299 23L299 24L304 24L299 23z"/>
<path style="fill:#f3f7ee; stroke:none;" d="M304 23L305 24L304 23z"/>
<path style="fill:#d3e7bc; stroke:none;" d="M317 23L318 24L317 23z"/>
<path style="fill:#a8d371; stroke:none;" d="M326 23L321 29L326 23z"/>
<path style="fill:#d3e7bc; stroke:none;" d="M327 23L328 24L327 23z"/>
<path style="fill:#f3f7ee; stroke:none;" d="M328 23L329 24L328 23z"/>
<path style="fill:#010101; stroke:none;" d="M334 23C327.269 23.3686 315.725 32.856 321.032 40.6667C325.801 47.6876 331.956 34.3591 332.844 31C333.55 28.3306 333.88 25.7486 334 23z"/>
<path style="fill:#a8d371; stroke:none;" d="M335 23L336 24L335 23M352 23L353 24L352 23z"/>
<path style="fill:#f3f7ee; stroke:none;" d="M361 23L362 24L361 23M372 23L373 24L372 23z"/>
<path style="fill:#d3e7bc; stroke:none;" d="M381.333 23.6667L381.667 24.3333L381.333 23.6667z"/>
<path style="fill:#a8d371; stroke:none;" d="M390.333 23.6667L390.667 24.3333L390.333 23.6667M405 23L406 24L405 23z"/>
<path style="fill:#d3e7bc; stroke:none;" d="M406 23L407 24L406 23z"/>
<path style="fill:#a8d371; stroke:none;" d="M407.333 23.6667L407.667 24.3333L407.333 23.6667z"/>
<path style="fill:#d3e7bc; stroke:none;" d="M414 23L415 24L414 23z"/>
<path style="fill:#a8d371; stroke:none;" d="M178 24L180 26L178 24M193 24L194 25L193 24z"/>
<path style="fill:#d3e7bc; stroke:none;" d="M194 24L195 25L194 24z"/>
<path style="fill:#f3f7ee; stroke:none;" d="M195 24L196 25L195 24z"/>
<path style="fill:#a8d371; stroke:none;" d="M216 24L217 25L216 24M218 24L218 25L222 25L218 24z"/>
<path style="fill:#d3e7bc; stroke:none;" d="M229 24L230 25L229 24z"/>
<path style="fill:#f3f7ee; stroke:none;" d="M230 24L231 25L230 24M234.667 24.3333L235.333 24.6667L234.667 24.3333z"/>
<path style="fill:#d3e7bc; stroke:none;" d="M249 24L250 25L249 24M259 24L260 25L259 24z"/>
<path style="fill:#f3f7ee; stroke:none;" d="M260 24L261 25L260 24z"/>
<path style="fill:#a8d371; stroke:none;" d="M268 24L269 25L268 24M277 24L278 25L277 24z"/>
<path style="fill:#f3f7ee; stroke:none;" d="M281 24L282 25L281 24z"/>
<path style="fill:#a8d371; stroke:none;" d="M282 24L283 25L282 24M284 24L284 25L288 26L284 24z"/>
<path style="fill:#d3e7bc; stroke:none;" d="M295.333 24.6667L295.667 25.3333L295.333 24.6667z"/>
<path style="fill:#f3f7ee; stroke:none;" d="M296.667 24.3333L297.333 24.6667L296.667 24.3333M316 24L314 27L316 24M326 24L327 25L326 24z"/>
<path style="fill:#a8d371; stroke:none;" d="M343.333 24.6667L343.667 25.3333L343.333 24.6667z"/>
<path style="fill:#f3f7ee; stroke:none;" d="M351 24L352 25L351 24z"/>
<path style="fill:#a8d371; stroke:none;" d="M360 24L361 25L360 24z"/>
<path style="fill:#d3e7bc; stroke:none;" d="M372 24L373 25L372 24z"/>
<path style="fill:#a8d371; stroke:none;" d="M403 24L404 25L403 24z"/>
<path style="fill:#d3e7bc; stroke:none;" d="M404 24L405 25L404 24z"/>
<path style="fill:#010101; stroke:none;" d="M405 24L405 26L407 24L405 24z"/>
<path style="fill:#a8d371; stroke:none;" d="M413 24L414 25L413 24z"/>
<path style="fill:#f3f7ee; stroke:none;" d="M178 25L179 26L178 25z"/>
<path style="fill:#a8d371; stroke:none;" d="M195 25L196 26L195 25z"/>
<path style="fill:#d3e7bc; stroke:none;" d="M196 25L197 26L196 25z"/>
<path style="fill:#f3f7ee; stroke:none;" d="M197 25L198 26L197 25M229 25L228 32L229 32L229 25z"/>
<path style="fill:#a8d371; stroke:none;" d="M249 25L250 26L249 25z"/>
<path style="fill:#d3e7bc; stroke:none;" d="M258 25L259 26L258 25z"/>
<path style="fill:#f3f7ee; stroke:none;" d="M268 25L269 26L268 25z"/>
<path style="fill:#d3e7bc; stroke:none;" d="M277.333 25.6667L277.667 26.3333L277.333 25.6667z"/>
<path style="fill:#f3f7ee; stroke:none;" d="M283 25L284 26L283 25M286.333 25.6667L286.667 26.3333L286.333 25.6667z"/>
<path style="fill:#a8d371; stroke:none;" d="M316 25L317 26L316 25z"/>
<path style="fill:#f3f7ee; stroke:none;" d="M325 25L326 26L325 25z"/>
<path style="fill:#d3e7bc; stroke:none;" d="M334.333 25.6667L334.667 26.3333L334.333 25.6667M351 25L352 26L351 25z"/>
<path style="fill:#f3f7ee; stroke:none;" d="M360 25L361 26L360 25z"/>
<path style="fill:#a8d371; stroke:none;" d="M372.333 25.6667L372.667 26.3333L372.333 25.6667z"/>
<path style="fill:#f3f7ee; stroke:none;" d="M381 25L382 26L381 25M389 25L390 26L389 25z"/>
<path style="fill:#a8d371; stroke:none;" d="M401 25L397 30L401 25z"/>
<path style="fill:#d3e7bc; stroke:none;" d="M402 25L403 26L402 25z"/>
<path style="fill:#f3f7ee; stroke:none;" d="M397 32L412 26L407 25C402.044 25.6524 399.358 27.5632 397 32z"/>
<path style="fill:#a8d371; stroke:none;" d="M411 25L412 26L411 25z"/>
<path style="fill:#d3e7bc; stroke:none;" d="M412 25L413 26L412 25z"/>
<path style="fill:#a8d371; stroke:none;" d="M180 26L181 27L180 26M198 26L199 27L198 26z"/>
<path style="fill:#f3f7ee; stroke:none;" d="M199 26L200 27L199 26z"/>
<path style="fill:#a8d371; stroke:none;" d="M228.333 26.6667L228.667 27.3333L228.333 26.6667M248 26L249 27L248 26z"/>
<path style="fill:#d3e7bc; stroke:none;" d="M257 26L258 27L257 26z"/>
<path style="fill:#a8d371; stroke:none;" d="M269 26L270 27L269 26M315 26L316 27L315 26z"/>
<path style="fill:#f3f7ee; stroke:none;" d="M324 26L325 27L324 26z"/>
<path style="fill:#d3e7bc; stroke:none;" d="M343 26L344 27L343 26z"/>
<path style="fill:#f3f7ee; stroke:none;" d="M350 26L351 27L350 26z"/>
<path style="fill:#a8d371; stroke:none;" d="M351 26L352 27L351 26z"/>
<path style="fill:#d3e7bc; stroke:none;" d="M359 26L360 27L359 26z"/>
<path style="fill:#a8d371; stroke:none;" d="M380 26L381 27L380 26z"/>
<path style="fill:#d3e7bc; stroke:none;" d="M389 26L390 27L389 26M407 26L408 27L407 26z"/>
<path style="fill:#a8d371; stroke:none;" d="M408.667 26.3333L409.333 26.6667L408.667 26.3333z"/>
<path style="fill:#d3e7bc; stroke:none;" d="M410 26L411 27L410 26M181 27L182 28L181 27z"/>
<path style="fill:#a8d371; stroke:none;" d="M200 27L201 28L200 27z"/>
<path style="fill:#f3f7ee; stroke:none;" d="M201 27L202 28L201 27z"/>
<path style="fill:#d3e7bc; stroke:none;" d="M220 27L221 28L220 27M247 27L248 28L247 27M256 27L257 28L256 27z"/>
<path style="fill:#f3f7ee; stroke:none;" d="M268 27L269 28L268 27z"/>
<path style="fill:#d3e7bc; stroke:none;" d="M286.333 27.6667L286.667 28.3333L286.333 27.6667z"/>
<path style="fill:#a8d371; stroke:none;" d="M294 27L295 28L294 27M314 27L315 28L314 27z"/>
<path style="fill:#f3f7ee; stroke:none;" d="M323 27L320 35L321 35L323 27z"/>
<path style="fill:#a8d371; stroke:none;" d="M334 27L335 28L334 27z"/>
<path style="fill:#f3f7ee; stroke:none;" d="M343 27L344 28L343 27z"/>
<path style="fill:#d3e7bc; stroke:none;" d="M350 27L351 28L350 27z"/>
<path style="fill:#f3f7ee; stroke:none;" d="M359 27L360 28L359 27M371 27L372 28L371 27z"/>
<path style="fill:#d3e7bc; stroke:none;" d="M380.333 27.6667L380.667 28.3333L380.333 27.6667z"/>
<path style="fill:#a8d371; stroke:none;" d="M389.333 27.6667L389.667 28.3333L389.333 27.6667z"/>
<path style="fill:#f3f7ee; stroke:none;" d="M182 28L183 29L182 28z"/>
<path style="fill:#a8d371; stroke:none;" d="M183 28L184 29L183 28z"/>
<path style="fill:#d3e7bc; stroke:none;" d="M202 28L203 29L202 28z"/>
<path style="fill:#a8d371; stroke:none;" d="M220.333 28.6667L220.667 29.3333L220.333 28.6667z"/>
<path style="fill:#d3e7bc; stroke:none;" d="M228 28L229 29L228 28z"/>
<path style="fill:#a8d371; stroke:none;" d="M247 28L248 29L247 28M255 28L256 29L255 28z"/>
<path style="fill:#d3e7bc; stroke:none;" d="M268 28L269 29L268 28z"/>
<path style="fill:#a8d371; stroke:none;" d="M276 28L277 29L276 28z"/>
<path style="fill:#d3e7bc; stroke:none;" d="M294.333 28.6667L294.667 29.3333L294.333 28.6667z"/>
<path style="fill:#f3f7ee; stroke:none;" d="M313 28L314 29L313 28M333 28L334 29L333 28z"/>
<path style="fill:#a8d371; stroke:none;" d="M342.333 28.6667L342.667 29.3333L342.333 28.6667M350.333 28.6667L350.667 29.3333L350.333 28.6667M358 28L359 29L358 28z"/>
<path style="fill:#d3e7bc; stroke:none;" d="M371 28L372 29L371 28M184 29L185 30L184 29z"/>
<path style="fill:#a8d371; stroke:none;" d="M185 29L186 30L185 29M203 29L206 32L203 29z"/>
<path style="fill:#f3f7ee; stroke:none;" d="M204 29L205 30L204 29z"/>
<path style="fill:#d3e7bc; stroke:none;" d="M255 29L256 30L255 29z"/>
<path style="fill:#a8d371; stroke:none;" d="M268.333 29.6667L268.667 30.3333L268.333 29.6667z"/>
<path style="fill:#d3e7bc; stroke:none;" d="M276.333 29.6667L276.667 30.3333L276.333 29.6667z"/>
<path style="fill:#a8d371; stroke:none;" d="M286 29L287 30L286 29z"/>
<path style="fill:#d3e7bc; stroke:none;" d="M313 29L314 30L313 29M321 29L322 30L321 29M333 29L334 30L333 29z"/>
<path style="fill:#f3f7ee; stroke:none;" d="M349 29L350 30L349 29z"/>
<path style="fill:#d3e7bc; stroke:none;" d="M358 29L359 30L358 29z"/>
<path style="fill:#a8d371; stroke:none;" d="M371.333 29.6667L371.667 30.3333L371.333 29.6667z"/>
<path style="fill:#f3f7ee; stroke:none;" d="M380 29L381 30L380 29M388 29L389 30L388 29z"/>
<path style="fill:#d3e7bc; stroke:none;" d="M186 30L187 31L186 30z"/>
<path style="fill:#a8d371; stroke:none;" d="M187 30L188 31L187 30z"/>
<path style="fill:#f3f7ee; stroke:none;" d="M205 30L206 31L205 30z"/>
<path style="fill:#a8d371; stroke:none;" d="M227.333 30.6667L227.667 31.3333L227.333 30.6667M246.333 30.6667L246.667 31.3333L246.333 30.6667M254 30L255 31L254 30z"/>
<path style="fill:#f3f7ee; stroke:none;" d="M285 30L286 31L285 30M312 30L313 31L312 30z"/>
<path style="fill:#a8d371; stroke:none;" d="M313 30L314 31L313 30M320 30L321 31L320 30M333.333 30.6667L333.667 31.3333L333.333 30.6667z"/>
<path style="fill:#d3e7bc; stroke:none;" d="M342 30L343 31L342 30M349 30L350 31L349 30z"/>
<path style="fill:#a8d371; stroke:none;" d="M357.333 30.6667L357.667 31.3333L357.333 30.6667z"/>
<path style="fill:#f3f7ee; stroke:none;" d="M358 30L359 31L358 30z"/>
<path style="fill:#a8d371; stroke:none;" d="M379 30L380 31L379 30z"/>
<path style="fill:#d3e7bc; stroke:none;" d="M388 30L389 31L388 30M397 30L398 31L397 30M188 31L189 32L188 31z"/>
<path style="fill:#a8d371; stroke:none;" d="M189 31L190 32L189 31z"/>
<path style="fill:#f3f7ee; stroke:none;" d="M206 31L207 32L206 31z"/>
<path style="fill:#d3e7bc; stroke:none;" d="M219 31L220 32L219 31z"/>
<path style="fill:#f3f7ee; stroke:none;" d="M254 31L255 32L254 31M267 31L268 32L267 31z"/>
<path style="fill:#d3e7bc; stroke:none;" d="M285.333 31.6667L285.667 32.3333L285.333 31.6667z"/>
<path style="fill:#a8d371; stroke:none;" d="M293 31L294 32L293 31z"/>
<path style="fill:#d3e7bc; stroke:none;" d="M312 31L313 32L312 31M320 31L321 32L320 31z"/>
<path style="fill:#f3f7ee; stroke:none;" d="M342 31L343 32L342 31z"/>
<path style="fill:#a8d371; stroke:none;" d="M349.333 31.6667L349.667 32.3333L349.333 31.6667z"/>
<path style="fill:#f3f7ee; stroke:none;" d="M370 31L371 32L370 31z"/>
<path style="fill:#d3e7bc; stroke:none;" d="M379.333 31.6667L379.667 32.3333L379.333 31.6667z"/>
<path style="fill:#a8d371; stroke:none;" d="M388.333 31.6667L388.667 32.3333L388.333 31.6667M396.333 31.6667L396.667 32.3333L396.333 31.6667z"/>
<path style="fill:#f3f7ee; stroke:none;" d="M190 32L191 33L190 32z"/>
<path style="fill:#a8d371; stroke:none;" d="M191 32L192 33L191 32z"/>
<path style="fill:#d3e7bc; stroke:none;" d="M206 32L207 33L206 32z"/>
<path style="fill:#a8d371; stroke:none;" d="M219.333 32.6667L219.667 33.3333L219.333 32.6667z"/>
<path style="fill:#d3e7bc; stroke:none;" d="M227 32L228 33L227 32M245.333 32.6667L245.667 33.3333L245.333 32.6667z"/>
<path style="fill:#a8d371; stroke:none;" d="M253 32L254 33L253 32z"/>
<path style="fill:#d3e7bc; stroke:none;" d="M267 32L268 33L267 32z"/>
<path style="fill:#a8d371; stroke:none;" d="M275 32L276 33L275 32z"/>
<path style="fill:#d3e7bc; stroke:none;" d="M293.333 32.6667L293.667 33.3333L293.333 32.6667z"/>
<path style="fill:#a8d371; stroke:none;" d="M312 32L313 33L312 32M319.333 32.6667L319.667 33.3333L319.333 32.6667z"/>
<path style="fill:#f3f7ee; stroke:none;" d="M332 32L333 33L332 32z"/>
<path style="fill:#a8d371; stroke:none;" d="M341.333 32.6667L341.667 33.3333L341.333 32.6667z"/>
<path style="fill:#d3e7bc; stroke:none;" d="M357 32L358 33L357 32M370 32L371 33L370 32z"/>
<path style="fill:#f3f7ee; stroke:none;" d="M192 33L193 34L192 33z"/>
<path style="fill:#d3e7bc; stroke:none;" d="M193 33L194 34L193 33z"/>
<path style="fill:#f3f7ee; stroke:none;" d="M207 33L208 34L207 33M218 33L217 39L218 39L218 33M227 33L226 40L227 40L227 33z"/>
<path style="fill:#d3e7bc; stroke:none;" d="M253.333 33.6667L253.667 34.3333L253.333 33.6667z"/>
<path style="fill:#a8d371; stroke:none;" d="M267.333 33.6667L267.667 34.3333L267.333 33.6667z"/>
<path style="fill:#d3e7bc; stroke:none;" d="M275.333 33.6667L275.667 34.3333L275.333 33.6667z"/>
<path style="fill:#a8d371; stroke:none;" d="M285 33L286 34L285 33z"/>
<path style="fill:#f3f7ee; stroke:none;" d="M311 33L312 34L311 33z"/>
<path style="fill:#d3e7bc; stroke:none;" d="M332 33L333 34L332 33z"/>
<path style="fill:#f3f7ee; stroke:none;" d="M348 33L349 34L348 33M357 33L358 34L357 33z"/>
<path style="fill:#a8d371; stroke:none;" d="M370.333 33.6667L370.667 34.3333L370.333 33.6667z"/>
<path style="fill:#f3f7ee; stroke:none;" d="M379 33L380 34L379 33M387 33L388 34L387 33z"/>
<path style="fill:#d3e7bc; stroke:none;" d="M396 33L397 34L396 33z"/>
<path style="fill:#f3f7ee; stroke:none;" d="M42 53C53.3405 45.0116 57.099 36 72 36C60.8205 28.6901 47.5093 45.1789 42 53M194 34L196 36L194 34z"/>
<path style="fill:#a8d371; stroke:none;" d="M195 34L196 35L195 34z"/>
<path style="fill:#d3e7bc; stroke:none;" d="M207 34L208 35L207 34z"/>
<path style="fill:#a8d371; stroke:none;" d="M226.333 34.6667L226.667 35.3333L226.333 34.6667z"/>
<path style="fill:#f3f7ee; stroke:none;" d="M244 34L244 39L245 39L244 34z"/>
<path style="fill:#a8d371; stroke:none;" d="M245 34L245 37L246 37L245 34z"/>
<path style="fill:#f3f7ee; stroke:none;" d="M284 34L285 35L284 34z"/>
<path style="fill:#d3e7bc; stroke:none;" d="M311 34L311 37L312 37L311 34M319 34L319 40L320 40L319 34z"/>
<path style="fill:#a8d371; stroke:none;" d="M332 34L333 35L332 34z"/>
<path style="fill:#d3e7bc; stroke:none;" d="M341 34L342 35L341 34M348.333 34.6667L348.667 35.3333L348.333 34.6667z"/>
<path style="fill:#a8d371; stroke:none;" d="M356 34L357 35L356 34M378 34L379 35L378 34z"/>
<path style="fill:#d3e7bc; stroke:none;" d="M387 34L388 35L387 34z"/>
<path style="fill:#f3f7ee; stroke:none;" d="M396 34L393 49L394 49L396 34M92 35L92 36L103 36L92 35M141 35L141 36L145 36L141 35z"/>
<path style="fill:#a8d371; stroke:none;" d="M196 35L197 36L196 35M207.333 35.6667L207.667 36.3333L207.333 35.6667z"/>
<path style="fill:#d3e7bc; stroke:none;" d="M218 35L219 36L218 35z"/>
<path style="fill:#f3f7ee; stroke:none;" d="M266 35L267 36L266 35z"/>
<path style="fill:#d3e7bc; stroke:none;" d="M284.333 35.6667L284.667 36.3333L284.333 35.6667z"/>
<path style="fill:#a8d371; stroke:none;" d="M292 35L293 36L292 35z"/>
<path style="fill:#f3f7ee; stroke:none;" d="M331 35L332 36L331 35M341 35L342 36L341 35z"/>
<path style="fill:#d3e7bc; stroke:none;" d="M356.333 35.6667L356.667 36.3333L356.333 35.6667z"/>
<path style="fill:#f3f7ee; stroke:none;" d="M369 35L370 36L369 35z"/>
<path style="fill:#d3e7bc; stroke:none;" d="M378.333 35.6667L378.667 36.3333L378.333 35.6667z"/>
<path style="fill:#a8d371; stroke:none;" d="M387.333 35.6667L387.667 36.3333L387.333 35.6667M395.333 35.6667L395.667 36.3333L395.333 35.6667M60 36L61 37L60 36z"/>
<path style="fill:#76b141; stroke:none;" d="M10 80C14.0859 64.3475 32.005 64.5322 36 80L110 80C111.804 63.798 132.235 64.7341 135 80C139.363 80 148.839 81.7901 152.397 78.9722C154.75 77.1087 153.999 72.6168 154 70L154 46C153.999 43.3832 154.75 38.8913 152.397 37.0278C149.779 34.9543 144.122 36 141 36L113 36L78 36C72.7904 36 65.9381 34.8559 61 36.7423C52.0056 40.1782 48.0893 51.6018 39 54.9676C28.6039 58.8173 12.7715 55.4662 3.43364 61.4336C-4.89632 66.7569 1.6748 79.9705 10 80z"/>
<path style="fill:#d3e7bc; stroke:none;" d="M153 36L154 37L153 36z"/>
<path style="fill:#a8d371; stroke:none;" d="M197 36L198 37L197 36M218.333 36.6667L218.667 37.3333L218.333 36.6667z"/>
<path style="fill:#d3e7bc; stroke:none;" d="M226 36L227 37L226 36z"/>
<path style="fill:#f3f7ee; stroke:none;" d="M234 40L243 39C239.52 35.7966 236.937 36.5114 234 40z"/>
<path style="fill:#d3e7bc; stroke:none;" d="M266 36L267 37L266 36z"/>
<path style="fill:#a8d371; stroke:none;" d="M274 36L275 37L274 36z"/>
<path style="fill:#d3e7bc; stroke:none;" d="M292.333 36.6667L292.667 37.3333L292.333 36.6667M331 36L332 37L331 36z"/>
<path style="fill:#a8d371; stroke:none;" d="M340.333 36.6667L340.667 37.3333L340.333 36.6667M348.333 36.6667L348.667 37.3333L348.333 36.6667z"/>
<path style="fill:#d3e7bc; stroke:none;" d="M369 36L370 37L369 36M58 37L59 38L58 37z"/>
<path style="fill:#f3f7ee; stroke:none;" d="M154 37L155 38L154 37z"/>
<path style="fill:#d3e7bc; stroke:none;" d="M173.667 37.3333L174.333 37.6667L173.667 37.3333z"/>
<path style="fill:#a8d371; stroke:none;" d="M175.667 37.3333L176.333 37.6667L175.667 37.3333z"/>
<path style="fill:#d3e7bc; stroke:none;" d="M197 37L198 38L197 37M237 37L237 38L240 38L237 37z"/>
<path style="fill:#f3f7ee; stroke:none;" d="M253 37L253 40L254 40L253 37M265 37L266 38L265 37z"/>
<path style="fill:#a8d371; stroke:none;" d="M266 37L267 38L266 37z"/>
<path style="fill:#d3e7bc; stroke:none;" d="M274 37L275 38L274 37z"/>
<path style="fill:#a8d371; stroke:none;" d="M284 37L285 38L284 37z"/>
<path style="fill:#d3e7bc; stroke:none;" d="M303 37L303 38L306 38L303 37z"/>
<path style="fill:#f3f7ee; stroke:none;" d="M306 37L307 38L306 37z"/>
<path style="fill:#a8d371; stroke:none;" d="M311 37L311 40L312 40L311 37M331 37L332 38L331 37z"/>
<path style="fill:#f3f7ee; stroke:none;" d="M356 37L357 38L356 37z"/>
<path style="fill:#a8d371; stroke:none;" d="M369.333 37.6667L369.667 38.3333L369.333 37.6667z"/>
<path style="fill:#f3f7ee; stroke:none;" d="M378 37L379 38L378 37M386 37L387 38L386 37z"/>
<path style="fill:#d3e7bc; stroke:none;" d="M395 37L396 38L395 37M57 38L58 39L57 38M154 38L154 78L155 78C155 66.5659 158.411 48.512 154 38M171 38L172 39L171 38z"/>
<path style="fill:#a8d371; stroke:none;" d="M172 38L173 39L172 38z"/>
<path style="fill:#f3f7ee; stroke:none;" d="M177 38L180 41L177 38M197 38L198 39L197 38M208 38L209 39L208 38z"/>
<path style="fill:#a8d371; stroke:none;" d="M225.333 38.6667L225.667 39.3333L225.333 38.6667M236 38L237 39L236 38M265 38L266 39L265 38z"/>
<path style="fill:#f3f7ee; stroke:none;" d="M274 38L275 39L274 38M283 38L284 39L283 38z"/>
<path style="fill:#a8d371; stroke:none;" d="M302 38L303 39L302 38z"/>
<path style="fill:#d3e7bc; stroke:none;" d="M307 38L308 39L307 38M330 38L331 39L330 38M340 38L341 39L340 38z"/>
<path style="fill:#f3f7ee; stroke:none;" d="M347 38L348 39L347 38z"/>
<path style="fill:#a8d371; stroke:none;" d="M377.333 38.6667L377.667 39.3333L377.333 38.6667z"/>
<path style="fill:#d3e7bc; stroke:none;" d="M386 38L387 39L386 38M56 39L57 40L56 39M170 39L171 40L170 39z"/>
<path style="fill:#a8d371; stroke:none;" d="M177 39L178 40L177 39z"/>
<path style="fill:#d3e7bc; stroke:none;" d="M197 39L198 40L197 39M217 39L218 40L217 39z"/>
<path style="fill:#a8d371; stroke:none;" d="M235 39L236 40L235 39z"/>
<path style="fill:#d3e7bc; stroke:none;" d="M241 39L241 42L242 42L241 39z"/>
<path style="fill:#a8d371; stroke:none;" d="M245 39L245 42L246 42L245 39z"/>
<path style="fill:#d3e7bc; stroke:none;" d="M264 39L265 40L264 39z"/>
<path style="fill:#a8d371; stroke:none;" d="M273.333 39.6667L273.667 40.3333L273.333 39.6667z"/>
<path style="fill:#d3e7bc; stroke:none;" d="M283.333 39.6667L283.667 40.3333L283.333 39.6667z"/>
<path style="fill:#a8d371; stroke:none;" d="M291 39L292 40L291 39z"/>
<path style="fill:#d3e7bc; stroke:none;" d="M301 39L302 40L301 39z"/>
<path style="fill:#a8d371; stroke:none;" d="M307.333 39.6667L307.667 40.3333L307.333 39.6667z"/>
<path style="fill:#f3f7ee; stroke:none;" d="M329 39L328 41L329 39z"/>
<path style="fill:#a8d371; stroke:none;" d="M330 39L331 40L330 39z"/>
<path style="fill:#f3f7ee; stroke:none;" d="M340 39L341 40L340 39z"/>
<path style="fill:#d3e7bc; stroke:none;" d="M347 39L347 46L348 46L347 39z"/>
<path style="fill:#f3f7ee; stroke:none;" d="M368 39L369 40L368 39z"/>
<path style="fill:#a8d371; stroke:none;" d="M386.333 39.6667L386.667 40.3333L386.333 39.6667M394.333 39.6667L394.667 40.3333L394.333 39.6667M55 40L56 41L55 40M170 40L171 41L170 40M178 40L179 41L178 40M197 40L198 41L197 40M207.333 40.6667L207.667 41.3333L207.333 40.6667z"/>
<path style="fill:#f3f7ee; stroke:none;" d="M216 40L216 45L217 45L216 40z"/>
<path style="fill:#a8d371; stroke:none;" d="M217.333 40.6667L217.667 41.3333L217.333 40.6667z"/>
<path style="fill:#d3e7bc; stroke:none;" d="M225 40L226 41L225 40M234 40L235 41L234 40M253 40L254 41L253 40M263 40L264 41L263 40M291 40L291 43L292 43L291 40z"/>
<path style="fill:#f3f7ee; stroke:none;" d="M300 40L299 42L300 40z"/>
<path style="fill:#a8d371; stroke:none;" d="M301 40L302 41L301 40z"/>
<path style="fill:#d3e7bc; stroke:none;" d="M311.333 40.6667L311.667 41.3333L311.333 40.6667z"/>
<path style="fill:#a8d371; stroke:none;" d="M319 40L320 41L319 40M329 40L330 41L329 40M339.333 40.6667L339.667 41.3333L339.333 40.6667M355 40L356 45L357 45L355 40z"/>
<path style="fill:#d3e7bc; stroke:none;" d="M368 40L369 41L368 40M377 40L378 41L377 40z"/>
<path style="fill:#a8d371; stroke:none;" d="M54 41L55 42L54 41z"/>
<path style="fill:#f3f7ee; stroke:none;" d="M62 41L63 42L62 41z"/>
<path style="fill:#010101; stroke:none;" d="M49 56L66 56C70.9014 56 79.2165 57.594 83.6821 55.3966C87.013 53.7576 87.1798 44.383 84.3966 42.179C81.4211 39.8227 76.3656 41.4252 73 41.6752C62.643 42.4443 54.0658 45.2282 49 56z"/>
<path style="fill:#f3f7ee; stroke:none;" d="M68 41L68 42L75 42L68 41M84 41L85 42L84 41z"/>
<path style="fill:#d3e7bc; stroke:none;" d="M85 41L86 42L85 41z"/>
<path style="fill:#f3f7ee; stroke:none;" d="M169.333 41.6667L169.667 42.3333L169.333 41.6667z"/>
<path style="fill:#a8d371; stroke:none;" d="M179 41L180 42L179 41z"/>
<path style="fill:#d3e7bc; stroke:none;" d="M180 41L181 42L180 41M196 41L197 42L196 41z"/>
<path style="fill:#f3f7ee; stroke:none;" d="M225 41C227.534 45.547 230.873 44.5281 234 41L227 44L225 41z"/>
<path style="fill:#a8d371; stroke:none;" d="M234 41L235 42L234 41M253 41L254 42L253 41z"/>
<path style="fill:#f3f7ee; stroke:none;" d="M254.333 41.6667L254.667 42.3333L254.333 41.6667M261 41L262 42L261 41z"/>
<path style="fill:#a8d371; stroke:none;" d="M262 41L263 42L262 41z"/>
<path style="fill:#d3e7bc; stroke:none;" d="M273 41L274 42L273 41z"/>
<path style="fill:#a8d371; stroke:none;" d="M283 41L283 44L284 44L283 41M300 41L301 42L300 41z"/>
<path style="fill:#d3e7bc; stroke:none;" d="M307 41L308 42L307 41M320 41L321 42L320 41M327 41L328 42L327 41z"/>
<path style="fill:#a8d371; stroke:none;" d="M328 41L329 42L328 41z"/>
<path style="fill:#f3f7ee; stroke:none;" d="M366 41L367 42L366 41z"/>
<path style="fill:#a8d371; stroke:none;" d="M367 41L368 42L367 41z"/>
<path style="fill:#f3f7ee; stroke:none;" d="M377 41L378 42L377 41M385 41L386 42L385 41z"/>
<path style="fill:#d3e7bc; stroke:none;" d="M394 41L395 42L394 41z"/>
<path style="fill:#a8d371; stroke:none;" d="M53 42L54 43L53 42M181 42L182 43L181 42z"/>
<path style="fill:#d3e7bc; stroke:none;" d="M182 42L183 43L182 42z"/>
<path style="fill:#f3f7ee; stroke:none;" d="M194 42L195 43L194 42z"/>
<path style="fill:#a8d371; stroke:none;" d="M195 42L196 43L195 42z"/>
<path style="fill:#d3e7bc; stroke:none;" d="M207 42L208 43L207 42z"/>
<path style="fill:#a8d371; stroke:none;" d="M233 42L234 43L233 42z"/>
<path style="fill:#f3f7ee; stroke:none;" d="M241 42L242 43L241 42z"/>
<path style="fill:#d3e7bc; stroke:none;" d="M245 42L246 43L245 42z"/>
<path style="fill:#f3f7ee; stroke:none;" d="M259 42L260 43L259 42z"/>
<path style="fill:#a8d371; stroke:none;" d="M260 42L261 43L260 42z"/>
<path style="fill:#f3f7ee; stroke:none;" d="M273 42L274 43L273 42z"/>
<path style="fill:#a8d371; stroke:none;" d="M299 42L300 43L299 42z"/>
<path style="fill:#f3f7ee; stroke:none;" d="M307 42L308 43L307 42M311 42L312 43L311 42z"/>
<path style="fill:#a8d371; stroke:none;" d="M320 42L321 43L320 42z"/>
<path style="fill:#f3f7ee; stroke:none;" d="M321 42L322 43L321 42M325 42L326 43L325 42z"/>
<path style="fill:#a8d371; stroke:none;" d="M326 42L327 43L326 42z"/>
<path style="fill:#d3e7bc; stroke:none;" d="M339 42L340 43L339 42z"/>
<path style="fill:#f3f7ee; stroke:none;" d="M364 42L365 43L364 42z"/>
<path style="fill:#d3e7bc; stroke:none;" d="M365 42L366 43L365 42z"/>
<path style="fill:#a8d371; stroke:none;" d="M366 42L367 43L366 42M376.333 42.6667L376.667 43.3333L376.333 42.6667z"/>
<path style="fill:#d3e7bc; stroke:none;" d="M385 42L386 43L385 42z"/>
<path style="fill:#a8d371; stroke:none;" d="M52 43L53 44L52 43M86 43L86 54L87 54L86 43M170 43L171 44L170 43M183 43L184 44L183 43z"/>
<path style="fill:#d3e7bc; stroke:none;" d="M184.667 43.3333L185.333 43.6667L184.667 43.3333z"/>
<path style="fill:#f3f7ee; stroke:none;" d="M186.667 43.3333L187.333 43.6667L186.667 43.3333M190.667 43.3333L191.333 43.6667L190.667 43.3333z"/>
<path style="fill:#d3e7bc; stroke:none;" d="M192 43L193 44L192 43z"/>
<path style="fill:#a8d371; stroke:none;" d="M193 43L194 44L193 43M206 43L207 44L206 43M217.333 43.6667L217.667 44.3333L217.333 43.6667z"/>
<path style="fill:#d3e7bc; stroke:none;" d="M225 43L227 45L225 43z"/>
<path style="fill:#a8d371; stroke:none;" d="M232 43L233 44L232 43z"/>
<path style="fill:#d3e7bc; stroke:none;" d="M240 43L241 44L240 43z"/>
<path style="fill:#f3f7ee; stroke:none;" d="M245 43L246 44L245 43z"/>
<path style="fill:#a8d371; stroke:none;" d="M254.667 43.3333L255.333 43.6667L254.667 43.3333z"/>
<path style="fill:#d3e7bc; stroke:none;" d="M256.667 43.3333L257.333 43.6667L256.667 43.3333z"/>
<path style="fill:#a8d371; stroke:none;" d="M258 43L259 44L258 43M272.333 43.6667L272.667 44.3333L272.333 43.6667M291 43L292 44L291 43z"/>
<path style="fill:#f3f7ee; stroke:none;" d="M297 43L296 45L297 43z"/>
<path style="fill:#a8d371; stroke:none;" d="M298 43L299 44L298 43z"/>
<path style="fill:#d3e7bc; stroke:none;" d="M306 43L307 44L306 43z"/>
<path style="fill:#a8d371; stroke:none;" d="M312 43L313 44L312 43M322 43L322 44L325 44L322 43z"/>
<path style="fill:#f3f7ee; stroke:none;" d="M339 43L340 44L339 43M356 43L357 44L356 43M362 43L363 44L362 43z"/>
<path style="fill:#a8d371; stroke:none;" d="M363 43L364 44L363 43M385.333 43.6667L385.667 44.3333L385.333 43.6667M393.333 43.6667L393.667 44.3333L393.333 43.6667M51 44L52 45L51 44z"/>
<path style="fill:#f3f7ee; stroke:none;" d="M59 44L57 47L59 44z"/>
<path style="fill:#d3e7bc; stroke:none;" d="M170 44L171 45L170 44z"/>
<path style="fill:#f3f7ee; stroke:none;" d="M206 44L207 45L206 44z"/>
<path style="fill:#a8d371; stroke:none;" d="M225 44L226 45L225 44z"/>
<path style="fill:#d3e7bc; stroke:none;" d="M230 44L231 45L230 44z"/>
<path style="fill:#a8d371; stroke:none;" d="M231 44L232 45L231 44M239 44L240 45L239 44M246 44L249 47L246 44M265 44L266 50L267 50L265 44z"/>
<path style="fill:#d3e7bc; stroke:none;" d="M283.333 44.6667L283.667 45.3333L283.333 44.6667M292 44L293 45L292 44z"/>
<path style="fill:#f3f7ee; stroke:none;" d="M293 44L294 45L293 44z"/>
<path style="fill:#a8d371; stroke:none;" d="M297 44L298 45L297 44M305 44L306 45L305 44z"/>
<path style="fill:#f3f7ee; stroke:none;" d="M306 44L307 45L306 44z"/>
<path style="fill:#d3e7bc; stroke:none;" d="M312 44L313 45L312 44z"/>
<path style="fill:#a8d371; stroke:none;" d="M338.333 44.6667L338.667 45.3333L338.333 44.6667z"/>
<path style="fill:#f3f7ee; stroke:none;" d="M357 44L357 45L360 45L357 44z"/>
<path style="fill:#d3e7bc; stroke:none;" d="M360 44L361 45L360 44z"/>
<path style="fill:#a8d371; stroke:none;" d="M361 44L362 45L361 44z"/>
<path style="fill:#d3e7bc; stroke:none;" d="M376 44L377 45L376 44z"/>
<path style="fill:#a8d371; stroke:none;" d="M50 45L51 46L50 45M171 45L173 47L171 45z"/>
<path style="fill:#d3e7bc; stroke:none;" d="M205 45L206 46L205 45M217 45L218 46L217 45z"/>
<path style="fill:#a8d371; stroke:none;" d="M227.667 45.3333L228.333 45.6667L227.667 45.3333z"/>
<path style="fill:#f3f7ee; stroke:none;" d="M239 45L235 50L239 45M246 45L247 46L246 45z"/>
<path style="fill:#d3e7bc; stroke:none;" d="M264 45L265 46L264 45M272 45L272 48L273 48L272 45z"/>
<path style="fill:#a8d371; stroke:none;" d="M293 45L293 46L296 46L293 45z"/>
<path style="fill:#d3e7bc; stroke:none;" d="M305 45L306 46L305 45z"/>
<path style="fill:#a8d371; stroke:none;" d="M313 45L315 47L313 45M330 45L331 46L330 45z"/>
<path style="fill:#f3f7ee; stroke:none;" d="M376 45L377 46L376 45M384 45L385 46L384 45z"/>
<path style="fill:#d3e7bc; stroke:none;" d="M393 45L394 46L393 45z"/>
<path style="fill:#a8d371; stroke:none;" d="M49 46L50 47L49 46z"/>
<path style="fill:#f3f7ee; stroke:none;" d="M171 46L172 47L171 46z"/>
<path style="fill:#a8d371; stroke:none;" d="M203 46L202 48L203 46z"/>
<path style="fill:#d3e7bc; stroke:none;" d="M204 46L205 47L204 46z"/>
<path style="fill:#f3f7ee; stroke:none;" d="M217 46L221 51L217 46z"/>
<path style="fill:#a8d371; stroke:none;" d="M237 46L238 47L237 46z"/>
<path style="fill:#d3e7bc; stroke:none;" d="M238 46L239 47L238 46z"/>
<path style="fill:#f3f7ee; stroke:none;" d="M247 46L248 47L247 46z"/>
<path style="fill:#a8d371; stroke:none;" d="M262 46L261 48L262 46z"/>
<path style="fill:#d3e7bc; stroke:none;" d="M263 46L264 47L263 46z"/>
<path style="fill:#f3f7ee; stroke:none;" d="M283 46L284 47L283 46z"/>
<path style="fill:#a8d371; stroke:none;" d="M284 46L285 47L284 46z"/>
<path style="fill:#d3e7bc; stroke:none;" d="M304 46L305 47L304 46z"/>
<path style="fill:#f3f7ee; stroke:none;" d="M313 46L314 47L313 46z"/>
<path style="fill:#d3e7bc; stroke:none;" d="M328 48L331 47L328 48M338 46L339 47L338 46z"/>
<path style="fill:#a8d371; stroke:none;" d="M366 46L367 47L366 46M375.333 46.6667L375.667 47.3333L375.333 46.6667z"/>
<path style="fill:#d3e7bc; stroke:none;" d="M384 46L385 47L384 46z"/>
<path style="fill:#a8d371; stroke:none;" d="M48 47L49 48L48 47z"/>
<path style="fill:#f3f7ee; stroke:none;" d="M56 47L57 48L56 47z"/>
<path style="fill:#d3e7bc; stroke:none;" d="M173 47L174 48L173 47z"/>
<path style="fill:#a8d371; stroke:none;" d="M174 47L176 49L174 47z"/>
<path style="fill:#f3f7ee; stroke:none;" d="M203 47L204 48L203 47z"/>
<path style="fill:#d3e7bc; stroke:none;" d="M218 47L219 48L218 47z"/>
<path style="fill:#a8d371; stroke:none;" d="M236 47L237 48L236 47z"/>
<path style="fill:#f3f7ee; stroke:none;" d="M248 47L248 48L254 50L254 49L248 47z"/>
<path style="fill:#d3e7bc; stroke:none;" d="M249 47L250 48L249 47z"/>
<path style="fill:#f3f7ee; stroke:none;" d="M262 47L263 48L262 47z"/>
<path style="fill:#d3e7bc; stroke:none;" d="M284 47L285 48L284 47z"/>
<path style="fill:#a8d371; stroke:none;" d="M302 47L301 49L302 47z"/>
<path style="fill:#d3e7bc; stroke:none;" d="M303 47L304 48L303 47z"/>
<path style="fill:#f3f7ee; stroke:none;" d="M314 47L315 48L314 47z"/>
<path style="fill:#d3e7bc; stroke:none;" d="M315 47L316 48L315 47z"/>
<path style="fill:#a8d371; stroke:none;" d="M316 47L317 48L316 47z"/>
<path style="fill:#f3f7ee; stroke:none;" d="M329 47L330 48L329 47z"/>
<path style="fill:#a8d371; stroke:none;" d="M330 47L331 48L330 47z"/>
<path style="fill:#f3f7ee; stroke:none;" d="M338 47L339 48L338 47z"/>
<path style="fill:#d3e7bc; stroke:none;" d="M348 47L349 48L348 47M365 47L367 51L368 51L365 47z"/>
<path style="fill:#f3f7ee; stroke:none;" d="M366 47L367 48L366 47z"/>
<path style="fill:#a8d371; stroke:none;" d="M384.333 47.6667L384.667 48.3333L384.333 47.6667M47 48L48 49L47 48M54 48L55 49L54 48z"/>
<path style="fill:#f3f7ee; stroke:none;" d="M55 48L56 49L55 48M174 48L175 49L174 48z"/>
<path style="fill:#a8d371; stroke:none;" d="M200 48L201 49L200 48z"/>
<path style="fill:#d3e7bc; stroke:none;" d="M201 48L202 49L201 48z"/>
<path style="fill:#f3f7ee; stroke:none;" d="M202 48L203 49L202 48z"/>
<path style="fill:#a8d371; stroke:none;" d="M219 48L220 49L219 48M235 48L236 49L235 48M251.667 48.3333L252.333 48.6667L251.667 48.3333M258.667 48.3333L259.333 48.6667L258.667 48.3333z"/>
<path style="fill:#f3f7ee; stroke:none;" d="M260 48L261 49L260 48z"/>
<path style="fill:#a8d371; stroke:none;" d="M272 48L271 50L272 48M285 48L286 49L285 48z"/>
<path style="fill:#f3f7ee; stroke:none;" d="M302 48L303 49L302 48z"/>
<path style="fill:#d3e7bc; stroke:none;" d="M317 48L318 49L317 48z"/>
<path style="fill:#a8d371; stroke:none;" d="M318 48L319 49L318 48M326 48L327 49L326 48z"/>
<path style="fill:#f3f7ee; stroke:none;" d="M327 48L328 49L327 48z"/>
<path style="fill:#a8d371; stroke:none;" d="M337.333 48.6667L337.667 49.3333L337.333 48.6667M349 48L350 49L349 48M363 48L364 49L363 48z"/>
<path style="fill:#d3e7bc; stroke:none;" d="M364 48L365 49L364 48M375 48L376 49L375 48z"/>
<path style="fill:#a8d371; stroke:none;" d="M392 48L393 49L392 48M46 49L47 50L46 49M53 49L54 50L53 49z"/>
<path style="fill:#f3f7ee; stroke:none;" d="M176 49L177 50L176 49z"/>
<path style="fill:#a8d371; stroke:none;" d="M177.667 49.3333L178.333 49.6667L177.667 49.3333M198 49L199 50L198 49z"/>
<path style="fill:#d3e7bc; stroke:none;" d="M199 49L200 50L199 49z"/>
<path style="fill:#a8d371; stroke:none;" d="M220 49L221 50L220 49M233 49L234 50L233 49z"/>
<path style="fill:#d3e7bc; stroke:none;" d="M234 49L235 50L234 49M254 49L254 50L258 50L254 49z"/>
<path style="fill:#f3f7ee; stroke:none;" d="M265 49L266 50L265 49z"/>
<path style="fill:#d3e7bc; stroke:none;" d="M272 49L273 50L272 49z"/>
<path style="fill:#f3f7ee; stroke:none;" d="M285 49L286 50L285 49z"/>
<path style="fill:#d3e7bc; stroke:none;" d="M286 49L287 50L286 49z"/>
<path style="fill:#a8d371; stroke:none;" d="M299 49L300 50L299 49z"/>
<path style="fill:#d3e7bc; stroke:none;" d="M300 49L301 50L300 49z"/>
<path style="fill:#f3f7ee; stroke:none;" d="M301 49L302 50L301 49M320 49L321 50L320 49z"/>
<path style="fill:#d3e7bc; stroke:none;" d="M321 49L321 50L325 50L321 49z"/>
<path style="fill:#f3f7ee; stroke:none;" d="M325 49L326 50L325 49z"/>
<path style="fill:#d3e7bc; stroke:none;" d="M329 49L330 50L329 49M350 49L351 50L350 49z"/>
<path style="fill:#a8d371; stroke:none;" d="M351 49L352 50L351 49M361 49L362 50L361 49z"/>
<path style="fill:#d3e7bc; stroke:none;" d="M362 49L363 50L362 49z"/>
<path style="fill:#f3f7ee; stroke:none;" d="M363 49L364 50L363 49M375 49L376 50L375 49z"/>
<path style="fill:#d3e7bc; stroke:none;" d="M384 49L385 50L384 49M392 49L393 50L392 49z"/>
<path style="fill:#a8d371; stroke:none;" d="M45 50L46 51L45 50M52 50L53 51L52 50z"/>
<path style="fill:#d3e7bc; stroke:none;" d="M179.667 50.3333L180.333 50.6667L179.667 50.3333z"/>
<path style="fill:#a8d371; stroke:none;" d="M181 50L182 51L181 50M194 50L195 51L194 50z"/>
<path style="fill:#d3e7bc; stroke:none;" d="M195.667 50.3333L196.333 50.6667L195.667 50.3333z"/>
<path style="fill:#f3f7ee; stroke:none;" d="M197 50L198 51L197 50z"/>
<path style="fill:#d3e7bc; stroke:none;" d="M221 50L222 51L221 50z"/>
<path style="fill:#a8d371; stroke:none;" d="M222 50L223 51L222 50M230.667 50.3333L231.333 50.6667L230.667 50.3333z"/>
<path style="fill:#d3e7bc; stroke:none;" d="M232 50L233 51L232 50z"/>
<path style="fill:#f3f7ee; stroke:none;" d="M267 50L268 51L267 50z"/>
<path style="fill:#d3e7bc; stroke:none;" d="M268 50L268 51L271 51L268 50z"/>
<path style="fill:#f3f7ee; stroke:none;" d="M271 50L272 51L271 50M287 50L288 51L287 50z"/>
<path style="fill:#a8d371; stroke:none;" d="M288 50L289 51L288 50M297 50L298 51L297 50z"/>
<path style="fill:#d3e7bc; stroke:none;" d="M298 50L299 51L298 50z"/>
<path style="fill:#a8d371; stroke:none;" d="M329 50L330 51L329 50z"/>
<path style="fill:#d3e7bc; stroke:none;" d="M337 50L338 51L337 50z"/>
<path style="fill:#f3f7ee; stroke:none;" d="M352 50L353 51L352 50z"/>
<path style="fill:#d3e7bc; stroke:none;" d="M353 50L354 51L353 50z"/>
<path style="fill:#a8d371; stroke:none;" d="M354 50L354 51L357 51L354 50M358.667 50.3333L359.333 50.6667L358.667 50.3333z"/>
<path style="fill:#d3e7bc; stroke:none;" d="M360 50L361 51L360 50z"/>
<path style="fill:#f3f7ee; stroke:none;" d="M361 50L362 51L361 50M366 50L367 51L366 50z"/>
<path style="fill:#d3e7bc; stroke:none;" d="M374 50L375 51L374 50z"/>
<path style="fill:#f3f7ee; stroke:none;" d="M385 50L386 51L385 50z"/>
<path style="fill:#d3e7bc; stroke:none;" d="M386.667 50.3333L387.333 50.6667L386.667 50.3333z"/>
<path style="fill:#a8d371; stroke:none;" d="M388 50L389 51L388 50z"/>
<path style="fill:#d3e7bc; stroke:none;" d="M389.667 50.3333L390.333 50.6667L389.667 50.3333z"/>
<path style="fill:#f3f7ee; stroke:none;" d="M391 50L392 51L391 50z"/>
<path style="fill:#a8d371; stroke:none;" d="M44 51L45 52L44 51M51 51L52 52L51 51z"/>
<path style="fill:#d3e7bc; stroke:none;" d="M183 51L183 52L192 52L183 51z"/>
<path style="fill:#f3f7ee; stroke:none;" d="M192 51L193 52L192 51M222 51L222 52L225 52L222 51z"/>
<path style="fill:#d3e7bc; stroke:none;" d="M225 51L225 52L229 52L225 51z"/>
<path style="fill:#f3f7ee; stroke:none;" d="M290 51L291 52L290 51z"/>
<path style="fill:#d3e7bc; stroke:none;" d="M291 51L291 52L295 52L291 51z"/>
<path style="fill:#f3f7ee; stroke:none;" d="M295 51L296 52L295 51M328 51L329 52L328 51M337 51L338 52L337 51M368 51L369 52L368 51z"/>
<path style="fill:#d3e7bc; stroke:none;" d="M369 51L369 52L373 52L369 51z"/>
<path style="fill:#f3f7ee; stroke:none;" d="M373 51L374 52L373 51M403 52L403 53L408 52L403 52z"/>
<path style="fill:#a8d371; stroke:none;" d="M43 52L44 53L43 52M50 52L51 53L50 52z"/>
<path style="fill:#f3f7ee; stroke:none;" d="M307 52L306 54L307 52z"/>
<path style="fill:#d3e7bc; stroke:none;" d="M308.667 52.3333L309.333 52.6667L308.667 52.3333z"/>
<path style="fill:#a8d371; stroke:none;" d="M310 52L310 53L314 55L310 52z"/>
<path style="fill:#f3f7ee; stroke:none;" d="M312 52L313 53L312 52z"/>
<path style="fill:#a8d371; stroke:none;" d="M328 52L329 53L328 52M336 52L337 53L336 52M42 53L43 54L42 53M49 53L50 54L49 53M307 53L308 54L307 53z"/>
<path style="fill:#f3f7ee; stroke:none;" d="M313 53L314 54L313 53M327 53L328 54L327 53z"/>
<path style="fill:#d3e7bc; stroke:none;" d="M336 53L337 54L336 53M40 54L41 55L40 54z"/>
<path style="fill:#a8d371; stroke:none;" d="M41 54L42 55L41 54M48 54L49 55L48 54M306 54L307 55L306 54M327 54L328 55L327 54M335 54L336 55L335 54z"/>
<path style="fill:#f3f7ee; stroke:none;" d="M336 54L337 55L336 54M33 55L34 56L33 55z"/>
<path style="fill:#d3e7bc; stroke:none;" d="M34.6667 55.3333L35.3333 55.6667L34.6667 55.3333z"/>
<path style="fill:#a8d371; stroke:none;" d="M36.6667 55.3333L37.3333 55.6667L36.6667 55.3333z"/>
<path style="fill:#f3f7ee; stroke:none;" d="M48 55L49 56L48 55z"/>
<path style="fill:#d3e7bc; stroke:none;" d="M85 55L86 56L85 55M305 55L306 56L305 55M314 55L315 56L314 55M326 55L327 56L326 55M335 55L336 56L335 55z"/>
<path style="fill:#f3f7ee; stroke:none;" d="M27 56L28 57L27 56z"/>
<path style="fill:#d3e7bc; stroke:none;" d="M28.6667 56.3333L29.3333 56.6667L28.6667 56.3333z"/>
<path style="fill:#a8d371; stroke:none;" d="M30 56L31 57L30 56z"/>
<path style="fill:#f3f7ee; stroke:none;" d="M305 56L306 57L305 56z"/>
<path style="fill:#a8d371; stroke:none;" d="M314 56L315 57L314 56z"/>
<path style="fill:#d3e7bc; stroke:none;" d="M325 56L326 57L325 56z"/>
<path style="fill:#a8d371; stroke:none;" d="M334 56L335 57L334 56z"/>
<path style="fill:#f3f7ee; stroke:none;" d="M335 56L336 57L335 56M21 57L22 58L21 57z"/>
<path style="fill:#d3e7bc; stroke:none;" d="M22 57L23 58L22 57z"/>
<path style="fill:#a8d371; stroke:none;" d="M23.6667 57.3333L24.3333 57.6667L23.6667 57.3333M306 57L308 59L306 57z"/>
<path style="fill:#d3e7bc; stroke:none;" d="M315 57L316 58L315 57M324 57L325 58L324 57M334 57L335 58L334 57z"/>
<path style="fill:#f3f7ee; stroke:none;" d="M14.6667 58.3333L15.3333 58.6667L14.6667 58.3333z"/>
<path style="fill:#d3e7bc; stroke:none;" d="M16 58L17 59L16 58z"/>
<path style="fill:#a8d371; stroke:none;" d="M17.6667 58.3333L18.3333 58.6667L17.6667 58.3333z"/>
<path style="fill:#f3f7ee; stroke:none;" d="M306 58L307 59L306 58z"/>
<path style="fill:#d3e7bc; stroke:none;" d="M316 58L317 59L316 58z"/>
<path style="fill:#f3f7ee; stroke:none;" d="M317 58L318 59L317 58M322 58L323 59L322 58z"/>
<path style="fill:#a8d371; stroke:none;" d="M323 58L324 59L323 58z"/>
<path style="fill:#d3e7bc; stroke:none;" d="M333 58L334 59L333 58z"/>
<path style="fill:#f3f7ee; stroke:none;" d="M8 59L9 60L8 59z"/>
<path style="fill:#d3e7bc; stroke:none;" d="M9.66667 59.3333L10.3333 59.6667L9.66667 59.3333z"/>
<path style="fill:#a8d371; stroke:none;" d="M11.6667 59.3333L12.3333 59.6667L11.6667 59.3333z"/>
<path style="fill:#d3e7bc; stroke:none;" d="M307 59L308 60L307 59z"/>
<path style="fill:#a8d371; stroke:none;" d="M317 59L318 60L317 59z"/>
<path style="fill:#d3e7bc; stroke:none;" d="M318 59L318 60L321 60L318 59z"/>
<path style="fill:#a8d371; stroke:none;" d="M321.667 59.3333L322.333 59.6667L321.667 59.3333M332 59L333 60L332 59z"/>
<path style="fill:#d3e7bc; stroke:none;" d="M3.66667 60.3333L4.33333 60.6667L3.66667 60.3333z"/>
<path style="fill:#a8d371; stroke:none;" d="M5 60L6 61L5 60z"/>
<path style="fill:#d3e7bc; stroke:none;" d="M308 60L309 61L308 60z"/>
<path style="fill:#a8d371; stroke:none;" d="M331 60L332 61L331 60z"/>
<path style="fill:#f3f7ee; stroke:none;" d="M1 61L2 62L1 61z"/>
<path style="fill:#d3e7bc; stroke:none;" d="M309 61L310 62L309 61M330 61L331 62L330 61z"/>
<path style="fill:#a8d371; stroke:none;" d="M1 62L2 63L1 62z"/>
<path style="fill:#d3e7bc; stroke:none;" d="M310 62L311 63L310 62z"/>
<path style="fill:#a8d371; stroke:none;" d="M311 62L313 64L311 62M328 62L329 63L328 62z"/>
<path style="fill:#d3e7bc; stroke:none;" d="M329 62L330 63L329 62z"/>
<path style="fill:#f3f7ee; stroke:none;" d="M311 63L312 64L311 63z"/>
<path style="fill:#a8d371; stroke:none;" d="M326 63L327 64L326 63z"/>
<path style="fill:#d3e7bc; stroke:none;" d="M327 63L328 64L327 63z"/>
<path style="fill:#f3f7ee; stroke:none;" d="M328 63L329 64L328 63M313 64L314 65L313 64z"/>
<path style="fill:#d3e7bc; stroke:none;" d="M314 64L315 65L314 64z"/>
<path style="fill:#a8d371; stroke:none;" d="M315 64L316 65L315 64M323.667 64.3333L324.333 64.6667L323.667 64.3333z"/>
<path style="fill:#d3e7bc; stroke:none;" d="M325 64L326 65L325 64z"/>
<path style="fill:#f3f7ee; stroke:none;" d="M316 65L316 66L323 66L316 65z"/>
<path style="fill:#a8d371; stroke:none;" d="M21 67L21 68L25 68L21 67M120 67L120 68L124 68L120 67z"/>
<path style="fill:#d3e7bc; stroke:none;" d="M18 68L19 69L18 68z"/>
<path style="fill:#f3f7ee; stroke:none;" d="M19 68L20 69L19 68M26 68L27 69L26 68z"/>
<path style="fill:#d3e7bc; stroke:none;" d="M27 68L28 69L27 68z"/>
<path style="fill:#a8d371; stroke:none;" d="M117 68L118 69L117 68z"/>
<path style="fill:#d3e7bc; stroke:none;" d="M118 68L119 69L118 68M126 68L127 69L126 68z"/>
<path style="fill:#a8d371; stroke:none;" d="M127 68L128 69L127 68z"/>
<path style="fill:#d3e7bc; stroke:none;" d="M16 69L17 70L16 69M29 69L30 70L29 69z"/>
<path style="fill:#a8d371; stroke:none;" d="M30 69L31 70L30 69z"/>
<path style="fill:#d3e7bc; stroke:none;" d="M115 69L116 70L115 69z"/>
<path style="fill:#f3f7ee; stroke:none;" d="M116 69L117 70L116 69M128 69L129 70L128 69z"/>
<path style="fill:#a8d371; stroke:none;" d="M129 69L130 70L129 69z"/>
<path style="fill:#f3f7ee; stroke:none;" d="M15 70L16 71L15 70M19 70L20 71L19 70z"/>
<path style="fill:#d3e7bc; stroke:none;" d="M20 70L21 71L20 70z"/>
<path style="fill:#a8d371; stroke:none;" d="M21 70L22 71L21 70z"/>
<path style="fill:#76b141; stroke:none;" d="M22.0008 70.7184C9.76203 72.1523 11.8613 90.9946 24 89.5617C36.2626 88.1142 34.1196 69.2984 22.0008 70.7184z"/>
<path style="fill:#a8d371; stroke:none;" d="M24.6667 70.3333L25.3333 70.6667L24.6667 70.3333z"/>
<path style="fill:#d3e7bc; stroke:none;" d="M26 70L27 71L26 70z"/>
<path style="fill:#a8d371; stroke:none;" d="M31 70L32 71L31 70z"/>
<path style="fill:#f3f7ee; stroke:none;" d="M114 70L115 71L114 70M118 70L119 71L118 70z"/>
<path style="fill:#d3e7bc; stroke:none;" d="M119 70L120 71L119 70z"/>
<path style="fill:#a8d371; stroke:none;" d="M120 70L121 71L120 70z"/>
<path style="fill:#76b141; stroke:none;" d="M121.004 70.7076C108.866 72.2945 111.862 91.6784 123.996 89.5625C135.825 87.4998 132.852 69.1586 121.004 70.7076z"/>
<path style="fill:#a8d371; stroke:none;" d="M123.667 70.3333L124.333 70.6667L123.667 70.3333z"/>
<path style="fill:#d3e7bc; stroke:none;" d="M125 70L126 71L125 70z"/>
<path style="fill:#a8d371; stroke:none;" d="M130 70L131 71L130 70z"/>
<path style="fill:#f3f7ee; stroke:none;" d="M14 71L15 72L14 71z"/>
<path style="fill:#d3e7bc; stroke:none;" d="M17 71L18 72L17 71z"/>
<path style="fill:#a8d371; stroke:none;" d="M18 71L19 72L18 71M27 71L28 72L27 71z"/>
<path style="fill:#d3e7bc; stroke:none;" d="M28 71L29 72L28 71z"/>
<path style="fill:#f3f7ee; stroke:none;" d="M31 71L32 72L31 71M113 71L114 72L113 71M116 71L117 72L116 71z"/>
<path style="fill:#a8d371; stroke:none;" d="M117 71L118 72L117 71z"/>
<path style="fill:#d3e7bc; stroke:none;" d="M127 71L128 72L127 71z"/>
<path style="fill:#a8d371; stroke:none;" d="M131 71L132 72L131 71z"/>
<path style="fill:#f3f7ee; stroke:none;" d="M192 71L192 72L195 72L192 71M196 71L196 72L202 72L196 71M216 71L216 72L226 72L216 71M233 71L233 72L241 72L233 71M247 71L247 72L383 72C372.258 67.4925 353.682 71 342 71L247 71M414 71L415 72L414 71M13 72L14 73L13 72z"/>
<path style="fill:#d3e7bc; stroke:none;" d="M16 72L17 73L16 72M29 72L30 73L29 72z"/>
<path style="fill:#f3f7ee; stroke:none;" d="M32 72L33 73L32 72z"/>
<path style="fill:#d3e7bc; stroke:none;" d="M112 72L113 73L112 72M115 72L116 73L115 72z"/>
<path style="fill:#a8d371; stroke:none;" d="M128 72L131 75L128 72z"/>
<path style="fill:#f3f7ee; stroke:none;" d="M129 72L130 73L129 72z"/>
<path style="fill:#a8d371; stroke:none;" d="M132 72L133 73L132 72z"/>
<path style="fill:#f3f7ee; stroke:none;" d="M169 72L170 73L169 72z"/>
<path style="fill:#a8d371; stroke:none;" d="M169 73L169 74C193.319 68.2101 223.985 73 249 73L414 73C408.049 70.5029 399.42 72 393 72L348 72L226 72C208.614 72 185.651 68.0782 169 73z"/>
<path style="fill:#76b141; stroke:none;" d="M169 74L169 76C185.095 80.7573 207.198 77 224 77L342 77L391 77C399.018 77 408.283 78.281 416 76L415 72C395.997 76.5242 372.528 73 353 73L227 73C209.322 73 185.929 68.996 169 74z"/>
<path style="fill:#d3e7bc; stroke:none;" d="M415 72L417 74L415 72M12 73L13 74L12 73M15 73L16 74L15 73M30 73L31 74L30 73M33 73L34 74L33 73z"/>
<path style="fill:#a8d371; stroke:none;" d="M111 73L112 74L111 73z"/>
<path style="fill:#d3e7bc; stroke:none;" d="M114 73L115 74L114 73z"/>
<path style="fill:#f3f7ee; stroke:none;" d="M130 73L131 74L130 73z"/>
<path style="fill:#a8d371; stroke:none;" d="M415 73L416 74L415 73M11 74L12 75L11 74z"/>
<path style="fill:#d3e7bc; stroke:none;" d="M14 74L15 75L14 74M31 74L32 75L31 74z"/>
<path style="fill:#a8d371; stroke:none;" d="M34 74L35 75L34 74z"/>
<path style="fill:#f3f7ee; stroke:none;" d="M111 74L112 75L111 74M113 74L114 75L113 74z"/>
<path style="fill:#a8d371; stroke:none;" d="M114 74L115 75L114 74z"/>
<path style="fill:#d3e7bc; stroke:none;" d="M133 74L134 75L133 74z"/>
<path style="fill:#a8d371; stroke:none;" d="M416 74C411.549 78.5448 403.964 77 398 77L353 77L171 77L171 78L359 78L403 78C406.803 78 416.131 79.5366 416 74z"/>
<path style="fill:#d3e7bc; stroke:none;" d="M11 75L12 76L11 75z"/>
<path style="fill:#a8d371; stroke:none;" d="M14 75L15 76L14 75M31 75L32 76L31 75z"/>
<path style="fill:#f3f7ee; stroke:none;" d="M32 75L33 76L32 75z"/>
<path style="fill:#d3e7bc; stroke:none;" d="M34 75L35 76L34 75z"/>
<path style="fill:#a8d371; stroke:none;" d="M110 75L111 76L110 75z"/>
<path style="fill:#d3e7bc; stroke:none;" d="M113 75L114 76L113 75M131 75L132 76L131 75M13 76L14 77L13 76M32 76L33 77L32 76M110 76L111 77L110 76z"/>
<path style="fill:#f3f7ee; stroke:none;" d="M112 76L113 77L112 76z"/>
<path style="fill:#a8d371; stroke:none;" d="M131 76L132 77L131 76M134 76L135 77L134 76z"/>
<path style="fill:#d3e7bc; stroke:none;" d="M169 76L171 78L169 76M416 76L417 77L416 76z"/>
<path style="fill:#a8d371; stroke:none;" d="M10.3333 77.6667L10.6667 78.3333L10.3333 77.6667M13 77L14 78L13 77M32 77L33 78L32 77M35.3333 77.6667L35.6667 78.3333L35.3333 77.6667z"/>
<path style="fill:#d3e7bc; stroke:none;" d="M112.333 77.6667L112.667 78.3333L112.333 77.6667M134 77L135 78L134 77z"/>
<path style="fill:#f3f7ee; stroke:none;" d="M169 77L170 78L169 77z"/>
<path style="fill:#d3e7bc; stroke:none;" d="M415 77L416 78L415 77z"/>
<path style="fill:#a8d371; stroke:none;" d="M1 78L2 79L1 78z"/>
<path style="fill:#f3f7ee; stroke:none;" d="M132 78L133 79L132 78M134 78L134 81L135 81L134 78M154 78L155 79L154 78M184 78L184 79L188 79L184 78M278 78L278 79L282 79L278 78M364 78L364 79L368 79L364 78z"/>
<path style="fill:#d3e7bc; stroke:none;" d="M10 79L3 80L3 81L10 79M35 79C38.6059 83.1265 49.783 81 55 81L110 81L110 80C86.5065 80 57.8446 84.4388 35 79z"/>
<path style="fill:#a8d371; stroke:none;" d="M112 79L112 82L113 82L112 79z"/>
<path style="fill:#d3e7bc; stroke:none;" d="M132.333 79.6667L132.667 80.3333L132.333 79.6667z"/>
<path style="fill:#a8d371; stroke:none;" d="M153 79L154 80L153 79z"/>
<path style="fill:#f3f7ee; stroke:none;" d="M2 80L3 81L2 80z"/>
<path style="fill:#d3e7bc; stroke:none;" d="M135 80L135 81L152 81L135 80z"/>
<path style="fill:#f3f7ee; stroke:none;" d="M152 80L153 81L152 80M3 81L4 82L3 81M101.667 81.3333L102.333 81.6667L101.667 81.3333M132.333 81.6667L132.667 82.3333L132.333 81.6667z"/>
<path style="fill:#a8d371; stroke:none;" d="M13 82L14 83L13 82M32 82L33 83L32 82z"/>
<path style="fill:#d3e7bc; stroke:none;" d="M112 82L113 83L112 82M13 83L14 84L13 83M32 83L33 84L32 83z"/>
<path style="fill:#f3f7ee; stroke:none;" d="M112 83L113 84L112 83z"/>
<path style="fill:#a8d371; stroke:none;" d="M131 83L132 84L131 83z"/>
<path style="fill:#f3f7ee; stroke:none;" d="M171 94L172 94L183 83C177.558 85.1082 173.679 88.8396 171 94M13 84L14 85L13 84M32 84L33 85L32 84z"/>
<path style="fill:#a8d371; stroke:none;" d="M113 84L114 85L113 84z"/>
<path style="fill:#d3e7bc; stroke:none;" d="M131 84L132 85L131 84z"/>
<path style="fill:#010101; stroke:none;" d="M181 84L182 85L181 84z"/>
<path style="fill:#f3f7ee; stroke:none;" d="M184 84L184 85L187 85L184 84z"/>
<path style="fill:#d3e7bc; stroke:none;" d="M187 84L187 85L194 85L187 84z"/>
<path style="fill:#f3f7ee; stroke:none;" d="M194 84L194 85L197 85L194 84z"/>
<path style="fill:#d3e7bc; stroke:none;" d="M14 85L15 86L14 85M31 85L32 86L31 85z"/>
<path style="fill:#f3f7ee; stroke:none;" d="M113 85L114 86L113 85z"/>
<path style="fill:#a8d371; stroke:none;" d="M130 85L131 86L130 85z"/>
<path style="fill:#d3e7bc; stroke:none;" d="M182 85L183 86L182 85z"/>
<path style="fill:#a8d371; stroke:none;" d="M183 85L184 86L183 85z"/>
<path style="fill:#76b141; stroke:none;" d="M200 110C195.201 111.548 194.164 117.392 188.996 118.523C175.254 121.531 172.542 98.4067 180.214 91.3943C185.92 86.1787 193.806 88.3477 195 96C199.423 94.4447 199.013 90.0949 200 86C195.398 85.1457 190.683 84.6001 186 85.1852C182.43 85.6311 178.85 87.034 176.105 89.3935C168.401 96.015 167.115 111.569 175.188 118.442C185.488 127.212 198.457 122.194 200 110z"/>
<path style="fill:#a8d371; stroke:none;" d="M197 85L198 86L197 85z"/>
<path style="fill:#d3e7bc; stroke:none;" d="M198.667 85.3333L199.333 85.6667L198.667 85.3333z"/>
<path style="fill:#f3f7ee; stroke:none;" d="M14 86L17 89L14 86z"/>
<path style="fill:#a8d371; stroke:none;" d="M15 86L16 87L15 86M30 86L28 89L30 86z"/>
<path style="fill:#f3f7ee; stroke:none;" d="M31 86L32 87L31 86z"/>
<path style="fill:#d3e7bc; stroke:none;" d="M114 86L115 87L114 86z"/>
<path style="fill:#f3f7ee; stroke:none;" d="M130 86L131 87L130 86z"/>
<path style="fill:#d3e7bc; stroke:none;" d="M179 86L180 87L179 86z"/>
<path style="fill:#a8d371; stroke:none;" d="M180 86L181 87L180 86z"/>
<path style="fill:#f3f7ee; stroke:none;" d="M200 86L201 87L200 86z"/>
<path style="fill:#a8d371; stroke:none;" d="M16 87L17 88L16 87z"/>
<path style="fill:#f3f7ee; stroke:none;" d="M30 87L31 88L30 87z"/>
<path style="fill:#d3e7bc; stroke:none;" d="M115 87L116 88L115 87M129 87L130 88L129 87z"/>
<path style="fill:#a8d371; stroke:none;" d="M178 87L179 88L178 87M199.333 87.6667L199.667 88.3333L199.333 87.6667z"/>
<path style="fill:#d3e7bc; stroke:none;" d="M17 88L18 89L17 88z"/>
<path style="fill:#f3f7ee; stroke:none;" d="M29 88L30 89L29 88z"/>
<path style="fill:#d3e7bc; stroke:none;" d="M116 88L117 89L116 88z"/>
<path style="fill:#a8d371; stroke:none;" d="M117 88L118 89L117 88M127 88L128 89L127 88z"/>
<path style="fill:#f3f7ee; stroke:none;" d="M128 88L129 89L128 88z"/>
<path style="fill:#d3e7bc; stroke:none;" d="M176 88L177 89L176 88z"/>
<path style="fill:#a8d371; stroke:none;" d="M184 88L184 89L190 89L184 88z"/>
<path style="fill:#f3f7ee; stroke:none;" d="M18 89L19 90L18 89z"/>
<path style="fill:#d3e7bc; stroke:none;" d="M19 89L20 90L19 89z"/>
<path style="fill:#a8d371; stroke:none;" d="M20 89L21 90L20 89M25 89L26 90L25 89z"/>
<path style="fill:#d3e7bc; stroke:none;" d="M26 89L27 90L26 89z"/>
<path style="fill:#f3f7ee; stroke:none;" d="M27 89L28 90L27 89z"/>
<path style="fill:#d3e7bc; stroke:none;" d="M118 89L119 90L118 89z"/>
<path style="fill:#a8d371; stroke:none;" d="M119 89L120 90L119 89M125 89L126 90L125 89z"/>
<path style="fill:#d3e7bc; stroke:none;" d="M126 89L127 90L126 89z"/>
<path style="fill:#a8d371; stroke:none;" d="M175 89L176 90L175 89M182 89L183 90L182 89z"/>
<path style="fill:#d3e7bc; stroke:none;" d="M183 89L184 90L183 89z"/>
<path style="fill:#f3f7ee; stroke:none;" d="M190 89L191 90L190 89z"/>
<path style="fill:#d3e7bc; stroke:none;" d="M191 89L192 90L191 89z"/>
<path style="fill:#a8d371; stroke:none;" d="M192 89L195 92L192 89z"/>
<path style="fill:#d3e7bc; stroke:none;" d="M199 89L199 92L200 92L199 89z"/>
<path style="fill:#f3f7ee; stroke:none;" d="M22.6667 90.3333L23.3333 90.6667L22.6667 90.3333M120 90L120 91L124 91L120 90z"/>
<path style="fill:#a8d371; stroke:none;" d="M174 90L175 91L174 90M180 90L178 93L180 90z"/>
<path style="fill:#f3f7ee; stroke:none;" d="M181 90L182 91L181 90M192 90L193 91L192 90z"/>
<path style="fill:#d3e7bc; stroke:none;" d="M173 91L174 92L173 91z"/>
<path style="fill:#f3f7ee; stroke:none;" d="M180 91L181 92L180 91M193 91L194 92L193 91M179 92L180 93L179 92z"/>
<path style="fill:#d3e7bc; stroke:none;" d="M194 92L194 96L195 96L194 92z"/>
<path style="fill:#f3f7ee; stroke:none;" d="M219 92L219 93L222 93L219 92M248 92L248 93L252 93L248 92z"/>
<path style="fill:#a8d371; stroke:none;" d="M172 93L173 94L172 93z"/>
<path style="fill:#f3f7ee; stroke:none;" d="M178 93L179 94L178 93z"/>
<path style="fill:#d3e7bc; stroke:none;" d="M215 93L216 94L215 93z"/>
<path style="fill:#a8d371; stroke:none;" d="M216.667 93.3333L217.333 93.6667L216.667 93.3333z"/>
<path style="fill:#76b141; stroke:none;" d="M204 122L215 122L215 120L211 120C211.631 108.507 226.765 111.062 220 122L233 122L222 93C211.554 93.9585 207.478 113.302 204 122z"/>
<path style="fill:#d3e7bc; stroke:none;" d="M222.333 93.6667L222.667 94.3333L222.333 93.6667z"/>
<path style="fill:#f3f7ee; stroke:none;" d="M236 93L237 94L236 93z"/>
<path style="fill:#76b141; stroke:none;" d="M237 93C241.365 102.092 241.365 112.908 237 122C242.806 122 250.671 123.362 255.956 120.543C263.521 116.508 260.513 109.586 254 107C269.326 94.3706 244.923 93.4618 237 93z"/>
<path style="fill:#a8d371; stroke:none;" d="M241 93L241 94L244 94L241 93M252 93L252 94L255 94L252 93z"/>
<path style="fill:#f3f7ee; stroke:none;" d="M255 93L256 94L255 93z"/>
<path style="fill:#d3e7bc; stroke:none;" d="M171 94L172 95L171 94M177 94L178 95L177 94z"/>
<path style="fill:#a8d371; stroke:none;" d="M198.333 94.6667L198.667 95.3333L198.333 94.6667z"/>
<path style="fill:#f3f7ee; stroke:none;" d="M214 94L215 95L214 94z"/>
<path style="fill:#d3e7bc; stroke:none;" d="M236.333 94.6667L236.667 95.3333L236.333 94.6667z"/>
<path style="fill:#a8d371; stroke:none;" d="M256 94L259 97L256 94z"/>
<path style="fill:#f3f7ee; stroke:none;" d="M257 94L258 95L257 94z"/>
<path style="fill:#a8d371; stroke:none;" d="M171 95L172 96L171 95z"/>
<path style="fill:#f3f7ee; stroke:none;" d="M177 95L178 96L177 95z"/>
<path style="fill:#d3e7bc; stroke:none;" d="M214 95L215 96L214 95z"/>
<path style="fill:#a8d371; stroke:none;" d="M222 95L223 96L222 95M237.667 95.3333L238.333 95.6667L237.667 95.3333z"/>
<path style="fill:#f3f7ee; stroke:none;" d="M258 95L259 96L258 95z"/>
<path style="fill:#d3e7bc; stroke:none;" d="M170 96L171 97L170 96z"/>
<path style="fill:#a8d371; stroke:none;" d="M176 96L177 97L176 96z"/>
<path style="fill:#f3f7ee; stroke:none;" d="M194 96L195 97L194 96z"/>
<path style="fill:#a8d371; stroke:none;" d="M195.667 96.3333L196.333 96.6667L195.667 96.3333z"/>
<path style="fill:#d3e7bc; stroke:none;" d="M197.667 96.3333L198.333 96.6667L197.667 96.3333z"/>
<path style="fill:#a8d371; stroke:none;" d="M214 96L215 97L214 96z"/>
<path style="fill:#f3f7ee; stroke:none;" d="M223 96L224 97L223 96z"/>
<path style="fill:#d3e7bc; stroke:none;" d="M239 96L240 97L239 96M246 96L246 97L250 97L246 96z"/>
<path style="fill:#a8d371; stroke:none;" d="M250 96L251 97L250 96z"/>
<path style="fill:#f3f7ee; stroke:none;" d="M259 96L260 97L259 96z"/>
<path style="fill:#a8d371; stroke:none;" d="M170 97L171 98L170 97z"/>
<path style="fill:#d3e7bc; stroke:none;" d="M176.333 97.6667L176.667 98.3333L176.333 97.6667z"/>
<path style="fill:#f3f7ee; stroke:none;" d="M213 97L214 98L213 97z"/>
<path style="fill:#d3e7bc; stroke:none;" d="M223 97L224 98L223 97z"/>
<path style="fill:#010101; stroke:none;" d="M246 97L246 105C254.652 104.717 254.52 97.4717 246 97z"/>
<path style="fill:#f3f7ee; stroke:none;" d="M251 97L252 98L251 97z"/>
<path style="fill:#a8d371; stroke:none;" d="M252 97L253 98L252 97z"/>
<path style="fill:#d3e7bc; stroke:none;" d="M259 97L260 98L259 97z"/>
<path style="fill:#f3f7ee; stroke:none;" d="M169 98L170 99L169 98z"/>
<path style="fill:#a8d371; stroke:none;" d="M213.333 98.6667L213.667 99.3333L213.333 98.6667M217 98L219 100L217 98M223.333 98.6667L223.667 99.3333L223.333 98.6667M253 98L254 99L253 98M259 98L259 102L260 102L259 98z"/>
<path style="fill:#d3e7bc; stroke:none;" d="M169 99L169 102L170 102L169 99z"/>
<path style="fill:#f3f7ee; stroke:none;" d="M176 99L177 100L176 99M217 99L218 100L217 99z"/>
<path style="fill:#d3e7bc; stroke:none;" d="M253 99L254 100L253 99M212 100L213 101L212 100z"/>
<path style="fill:#a8d371; stroke:none;" d="M216 100L217 101L216 100z"/>
<path style="fill:#010101; stroke:none;" d="M217 100L215 109L220 109L217 100z"/>
<path style="fill:#d3e7bc; stroke:none;" d="M218 100L219 101L218 100z"/>
<path style="fill:#f3f7ee; stroke:none;" d="M224 100L225 101L224 100z"/>
<path style="fill:#a8d371; stroke:none;" d="M245 100L245 106L246 106L245 100z"/>
<path style="fill:#f3f7ee; stroke:none;" d="M253 100L254 101L253 100z"/>
<path style="fill:#a8d371; stroke:none;" d="M212 101L213 102L212 101z"/>
<path style="fill:#d3e7bc; stroke:none;" d="M216 101L217 102L216 101z"/>
<path style="fill:#f3f7ee; stroke:none;" d="M218 101L219 102L218 101z"/>
<path style="fill:#d3e7bc; stroke:none;" d="M224 101L225 102L224 101z"/>
<path style="fill:#a8d371; stroke:none;" d="M169 102L169 108L170 108L169 102z"/>
<path style="fill:#f3f7ee; stroke:none;" d="M211 102L212 103L211 102M216 102L217 103L216 102z"/>
<path style="fill:#a8d371; stroke:none;" d="M219 102L220 103L219 102M224 102L225 103L224 102z"/>
<path style="fill:#f3f7ee; stroke:none;" d="M253 102L254 103L253 102z"/>
<path style="fill:#d3e7bc; stroke:none;" d="M259 102L260 103L259 102M211 103L212 104L211 103z"/>
<path style="fill:#a8d371; stroke:none;" d="M215 103L216 104L215 103z"/>
<path style="fill:#d3e7bc; stroke:none;" d="M219 103L220 104L219 103z"/>
<path style="fill:#f3f7ee; stroke:none;" d="M225 103L226 104L225 103z"/>
<path style="fill:#a8d371; stroke:none;" d="M253 103L254 104L253 103M258 103L256 106L258 103M211 104L212 105L211 104z"/>
<path style="fill:#d3e7bc; stroke:none;" d="M215 104L216 105L215 104z"/>
<path style="fill:#f3f7ee; stroke:none;" d="M219 104L219 107L220 107L219 104z"/>
<path style="fill:#d3e7bc; stroke:none;" d="M225 104L226 105L225 104M252 104L253 105L252 104z"/>
<path style="fill:#f3f7ee; stroke:none;" d="M258 104L259 105L258 104M176 105L177 106L176 105z"/>
<path style="fill:#d3e7bc; stroke:none;" d="M210 105L211 106L210 105z"/>
<path style="fill:#f3f7ee; stroke:none;" d="M215 105L216 106L215 105z"/>
<path style="fill:#a8d371; stroke:none;" d="M220.333 105.667L220.667 106.333L220.333 105.667M225.333 105.667L225.667 106.333L225.333 105.667z"/>
<path style="fill:#f3f7ee; stroke:none;" d="M246 105L246 106L251 106L246 105z"/>
<path style="fill:#d3e7bc; stroke:none;" d="M251 105L252 106L251 105z"/>
<path style="fill:#f3f7ee; stroke:none;" d="M257 105L258 106L257 105z"/>
<path style="fill:#d3e7bc; stroke:none;" d="M176.333 106.667L176.667 107.333L176.333 106.667z"/>
<path style="fill:#a8d371; stroke:none;" d="M210 106L211 107L210 106M214 106L215 107L214 106M254 106L256 108L254 106z"/>
<path style="fill:#d3e7bc; stroke:none;" d="M255 106L257 108L255 106z"/>
<path style="fill:#f3f7ee; stroke:none;" d="M256 106L257 107L256 106M209 107L210 108L209 107z"/>
<path style="fill:#d3e7bc; stroke:none;" d="M214 107L215 108L214 107M220 107L221 108L220 107M226.333 107.667L226.667 108.333L226.333 107.667z"/>
<path style="fill:#f3f7ee; stroke:none;" d="M257 107L258 108L257 107z"/>
<path style="fill:#d3e7bc; stroke:none;" d="M169.333 108.667L169.667 109.333L169.333 108.667z"/>
<path style="fill:#a8d371; stroke:none;" d="M176.333 108.667L176.667 109.333L176.333 108.667z"/>
<path style="fill:#d3e7bc; stroke:none;" d="M209 108L210 109L209 108z"/>
<path style="fill:#a8d371; stroke:none;" d="M213 108L221 110L221 109L213 108z"/>
<path style="fill:#f3f7ee; stroke:none;" d="M214 108L215 109L214 108M220 108L221 109L220 108z"/>
<path style="fill:#d3e7bc; stroke:none;" d="M258 108L259 109L258 108z"/>
<path style="fill:#f3f7ee; stroke:none;" d="M259 108L261 110L259 108M197 109L197 110L201 110L197 109z"/>
<path style="fill:#a8d371; stroke:none;" d="M209 109L210 110L209 109M226 109L227 110L226 109M245 109L246 110L245 109z"/>
<path style="fill:#d3e7bc; stroke:none;" d="M245 117L246 117L246 110L251 110C245.633 107.961 245.051 112.719 245 117z"/>
<path style="fill:#a8d371; stroke:none;" d="M251.667 109.333L252.333 109.667L251.667 109.333M259 109L260 110L259 109z"/>
<path style="fill:#f3f7ee; stroke:none;" d="M169 110L170 111L169 110M177 110L178 111L177 110z"/>
<path style="fill:#a8d371; stroke:none;" d="M196 110L197 111L196 110z"/>
<path style="fill:#d3e7bc; stroke:none;" d="M200 110L201 111L200 110z"/>
<path style="fill:#f3f7ee; stroke:none;" d="M208 110L209 111L208 110M227 110L228 111L227 110z"/>
<path style="fill:#010101; stroke:none;" d="M246 110L246 118C256.022 117.882 255.898 110.24 246 110z"/>
<path style="fill:#f3f7ee; stroke:none;" d="M252 110L253 111L252 110z"/>
<path style="fill:#d3e7bc; stroke:none;" d="M253 110L254 111L253 110z"/>
<path style="fill:#a8d371; stroke:none;" d="M260 110L261 111L260 110M170 111L171 112L170 111z"/>
<path style="fill:#d3e7bc; stroke:none;" d="M177 111L178 112L177 111z"/>
<path style="fill:#f3f7ee; stroke:none;" d="M195 111L196 112L195 111M200 111L201 112L200 111z"/>
<path style="fill:#d3e7bc; stroke:none;" d="M208 111L209 112L208 111M227 111L228 112L227 111M254 111L255 112L254 111z"/>
<path style="fill:#f3f7ee; stroke:none;" d="M261.333 111.667L261.667 112.333L261.333 111.667z"/>
<path style="fill:#d3e7bc; stroke:none;" d="M170 112L171 113L170 112z"/>
<path style="fill:#a8d371; stroke:none;" d="M177 112L178 113L177 112z"/>
<path style="fill:#f3f7ee; stroke:none;" d="M178 112L179 113L178 112z"/>
<path style="fill:#d3e7bc; stroke:none;" d="M195 112L196 113L195 112z"/>
<path style="fill:#a8d371; stroke:none;" d="M208 112L209 113L208 112M212.667 112.333L213.333 112.667L212.667 112.333z"/>
<path style="fill:#d3e7bc; stroke:none;" d="M214 112L214 113L222 113L214 112z"/>
<path style="fill:#a8d371; stroke:none;" d="M227 112L228 113L227 112z"/>
<path style="fill:#f3f7ee; stroke:none;" d="M254 112L255 113L254 112z"/>
<path style="fill:#a8d371; stroke:none;" d="M255 112L255 116L256 116L255 112z"/>
<path style="fill:#f3f7ee; stroke:none;" d="M170 113L171 114L170 113z"/>
<path style="fill:#d3e7bc; stroke:none;" d="M178 113L179 114L178 113z"/>
<path style="fill:#a8d371; stroke:none;" d="M195 113L196 114L195 113M199.333 113.667L199.667 114.333L199.333 113.667z"/>
<path style="fill:#d3e7bc; stroke:none;" d="M207 113L208 114L207 113M212 113L213 114L212 113z"/>
<path style="fill:#a8d371; stroke:none;" d="M222 113L223 114L222 113z"/>
<path style="fill:#f3f7ee; stroke:none;" d="M228 113L229 114L228 113z"/>
<path style="fill:#d3e7bc; stroke:none;" d="M261.333 113.667L261.667 114.333L261.333 113.667z"/>
<path style="fill:#a8d371; stroke:none;" d="M171 114L173 116L171 114z"/>
<path style="fill:#f3f7ee; stroke:none;" d="M179 114L182 117L179 114M194 114L195 115L194 114z"/>
<path style="fill:#a8d371; stroke:none;" d="M207 114L208 115L207 114M211.333 114.667L211.667 115.333L211.333 114.667z"/>
<path style="fill:#f3f7ee; stroke:none;" d="M212 114L213 115L212 114z"/>
<path style="fill:#d3e7bc; stroke:none;" d="M222 114L223 115L222 114M228 114L229 115L228 114z"/>
<path style="fill:#f3f7ee; stroke:none;" d="M171 115L172 116L171 115z"/>
<path style="fill:#a8d371; stroke:none;" d="M179 115L180 116L179 115M194 115L195 116L194 115z"/>
<path style="fill:#d3e7bc; stroke:none;" d="M199 115L199 119L200 119L199 115z"/>
<path style="fill:#f3f7ee; stroke:none;" d="M206 115L207 116L206 115M222 115L223 116L222 115z"/>
<path style="fill:#a8d371; stroke:none;" d="M228 115L229 116L228 115z"/>
<path style="fill:#f3f7ee; stroke:none;" d="M261.333 115.667L261.667 116.333L261.333 115.667z"/>
<path style="fill:#d3e7bc; stroke:none;" d="M172 116L173 117L172 116z"/>
<path style="fill:#a8d371; stroke:none;" d="M180 116L181 117L180 116z"/>
<path style="fill:#d3e7bc; stroke:none;" d="M193 116L194 117L193 116M206 116L207 117L206 116M211 116L212 117L211 116z"/>
<path style="fill:#a8d371; stroke:none;" d="M223 116L222 120L223 120L223 116z"/>
<path style="fill:#f3f7ee; stroke:none;" d="M229 116L230 117L229 116M254 116L253 118L254 116z"/>
<path style="fill:#a8d371; stroke:none;" d="M260 116L261 117L260 116z"/>
<path style="fill:#d3e7bc; stroke:none;" d="M173 117L174 118L173 117z"/>
<path style="fill:#a8d371; stroke:none;" d="M182 117L183 118L182 117z"/>
<path style="fill:#f3f7ee; stroke:none;" d="M183 117L184 118L183 117M191 117L192 118L191 117z"/>
<path style="fill:#a8d371; stroke:none;" d="M192 117L193 118L192 117z"/>
<path style="fill:#f3f7ee; stroke:none;" d="M205 117L204 119L205 117z"/>
<path style="fill:#a8d371; stroke:none;" d="M206 117L207 118L206 117M229 117L230 118L229 117z"/>
<path style="fill:#f3f7ee; stroke:none;" d="M231 117L233 123L229 122C234.996 127.44 239.12 118.306 231 117M239 117L238 119L239 117z"/>
<path style="fill:#a8d371; stroke:none;" d="M245 117L246 118L245 117M254 117L255 118L254 117z"/>
<path style="fill:#d3e7bc; stroke:none;" d="M260 117L261 118L260 117M174 118L175 119L174 118z"/>
<path style="fill:#a8d371; stroke:none;" d="M184 118L185 119L184 118z"/>
<path style="fill:#d3e7bc; stroke:none;" d="M185.667 118.333L186.333 118.667L185.667 118.333z"/>
<path style="fill:#f3f7ee; stroke:none;" d="M187 118L188 119L187 118z"/>
<path style="fill:#d3e7bc; stroke:none;" d="M188.667 118.333L189.333 118.667L188.667 118.333z"/>
<path style="fill:#a8d371; stroke:none;" d="M190 118L191 119L190 118M205 118L206 119L205 118z"/>
<path style="fill:#f3f7ee; stroke:none;" d="M211 118L212 119L211 118M222 118L223 119L222 118z"/>
<path style="fill:#d3e7bc; stroke:none;" d="M230 118L231 119L230 118z"/>
<path style="fill:#a8d371; stroke:none;" d="M239 118L240 119L239 118M246 118L247 119L246 118z"/>
<path style="fill:#d3e7bc; stroke:none;" d="M247 118L248 119L247 118z"/>
<path style="fill:#f3f7ee; stroke:none;" d="M248 118L248 119L252 119L248 118z"/>
<path style="fill:#d3e7bc; stroke:none;" d="M252 118L253 119L252 118z"/>
<path style="fill:#a8d371; stroke:none;" d="M253 118L254 119L253 118M259 118L258 120L259 118z"/>
<path style="fill:#d3e7bc; stroke:none;" d="M175 119L176 120L175 119z"/>
<path style="fill:#a8d371; stroke:none;" d="M176 119L178 121L176 119z"/>
<path style="fill:#f3f7ee; stroke:none;" d="M199 119L200 120L199 119z"/>
<path style="fill:#d3e7bc; stroke:none;" d="M203 119L204 120L203 119z"/>
<path style="fill:#a8d371; stroke:none;" d="M204 119L205 120L204 119M211 119L212 120L211 119z"/>
<path style="fill:#d3e7bc; stroke:none;" d="M212 119L212 120L216 120L212 119z"/>
<path style="fill:#f3f7ee; stroke:none;" d="M219 119L220 120L219 119z"/>
<path style="fill:#d3e7bc; stroke:none;" d="M220.667 119.333L221.333 119.667L220.667 119.333z"/>
<path style="fill:#a8d371; stroke:none;" d="M231.667 119.333L232.333 119.667L231.667 119.333z"/>
<path style="fill:#d3e7bc; stroke:none;" d="M237 119L238 120L237 119z"/>
<path style="fill:#a8d371; stroke:none;" d="M238 119L239 120L238 119z"/>
<path style="fill:#f3f7ee; stroke:none;" d="M259 119L260 120L259 119M176 120L177 121L176 120z"/>
<path style="fill:#a8d371; stroke:none;" d="M197 120L198 121L197 120z"/>
<path style="fill:#d3e7bc; stroke:none;" d="M198 120L199 121L198 120z"/>
<path style="fill:#a8d371; stroke:none;" d="M203.333 120.667L203.667 121.333L203.333 120.667M215 120L216 121L215 120z"/>
<path style="fill:#d3e7bc; stroke:none;" d="M219 120L220 121L219 120z"/>
<path style="fill:#a8d371; stroke:none;" d="M236.333 120.667L236.667 121.333L236.333 120.667M256 120L257 121L256 120z"/>
<path style="fill:#d3e7bc; stroke:none;" d="M257 120L258 121L257 120z"/>
<path style="fill:#f3f7ee; stroke:none;" d="M178 121L179 122L178 121z"/>
<path style="fill:#d3e7bc; stroke:none;" d="M179 121L180 122L179 121z"/>
<path style="fill:#a8d371; stroke:none;" d="M180 121L181 122L180 121M194 121L195 122L194 121z"/>
<path style="fill:#d3e7bc; stroke:none;" d="M195 121L196 122L195 121z"/>
<path style="fill:#f3f7ee; stroke:none;" d="M196 121L197 122L196 121z"/>
<path style="fill:#d3e7bc; stroke:none;" d="M215 121L216 122L215 121z"/>
<path style="fill:#a8d371; stroke:none;" d="M219 121L220 122L219 121M254 121L255 122L254 121z"/>
<path style="fill:#d3e7bc; stroke:none;" d="M255 121L256 122L255 121z"/>
<path style="fill:#f3f7ee; stroke:none;" d="M256 121L257 122L256 121M181 122L182 123L181 122z"/>
<path style="fill:#d3e7bc; stroke:none;" d="M182 122L182 123L185 123L182 122z"/>
<path style="fill:#a8d371; stroke:none;" d="M185 122L185 123L189 123L185 122z"/>
<path style="fill:#d3e7bc; stroke:none;" d="M189 122L189 123L192 123L189 122z"/>
<path style="fill:#f3f7ee; stroke:none;" d="M192 122L193 123L192 122M203 122L203 123L207 123L203 122M210 122L210 123L216 123L210 122z"/>
<path style="fill:#d3e7bc; stroke:none;" d="M219.667 122.333L220.333 122.667L219.667 122.333z"/>
<path style="fill:#f3f7ee; stroke:none;" d="M221 122L221 123L226 123L221 122z"/>
<path style="fill:#d3e7bc; stroke:none;" d="M230 122L230 123L233 123L230 122M236 122L236 123L239 123L236 122z"/>
<path style="fill:#f3f7ee; stroke:none;" d="M239 122L239 123L242 123L239 122M243 122L243 123L247 123L243 122z"/>
<path style="fill:#d3e7bc; stroke:none;" d="M247 122L247 123L252 123L247 122z"/>
<path style="fill:#f3f7ee; stroke:none;" d="M252.667 122.333L253.333 122.667L252.667 122.333z"/>
</svg>
