<svg xmlns="http://www.w3.org/2000/svg" viewBox="0 0 64 64">
  <g data-name="03-Skip">
    <!-- transform="scale (-1, 1)" transform-origin="center" "> -->
    <path style="fill:#F6FBF4" d="M45 32 30 47v16l-4-4V46l14-14-14-14V5l4-4v16l15 15z" />
    <path style="fill:#5FD068" d="M61 32 30 63V47l15-15-15-15V1l31 31z" />
    <path style="fill:#5FD068" d="M17 37.25V46l-4-2v-3l-.12-.14L17 37.25zM17 18v8.75l-4.12-3.61L13 23v-3l4-2z" />
    <path style="fill:#F6FBF4" d="M33 32 17 46v-8.75L23 32l-6-5.25V18l16 14zM7 18v28l-4-2V20l4-2z" />
    <path style="fill:#5FD068" d="m23 32-6 5.25-4.12 3.61L7 46V18l5.88 5.14L17 26.75 23 32z" />
    <path style="fill:#5FD068" d="M30 17V1l-4 4v13l14 14h5L30 17z" />
    <path style="fill:#F6FBF4" d="m30 17 15 15h16L30 1v16z" />
    <path style="fill:#F6FBF4" d="m26 59 4 4V47l-4-1v13z" />
    <path style="fill:#5FD068" d="m30 1-4 4v13l4-1V1z" />
    <path style="fill:none;stroke:#000;stroke-linejoin:round;stroke-width:2px" d="m41 52 20-20L30 1v16l15 15-15 15v16l5-5M37 56l2-2" />
    <path style="fill:none;stroke:#000;stroke-linejoin:round;stroke-width:2px" d="M17 40v6l16-14-16-14v6M7 26v-2" />
    <path style="fill:none;stroke:#000;stroke-linejoin:round;stroke-width:2px" d="M7 22v-4l16 14L7 46V28M30 1l-4 4v13l14 14-14 14v13l4 4M17 46l-4-2v-3M17 18l-4 2v3M7 18l-4 2v24l4 2" />
  </g>
</svg>